<?xml version="1.0" encoding="iso-8859-1"?>
<!-- Generator: Adobe Illustrator 19.0.0, SVG Export Plug-In . SVG Version: 6.00 Build 0)  -->
<svg version="1.1" id="Layer_1" xmlns="http://www.w3.org/2000/svg" xmlns:xlink="http://www.w3.org/1999/xlink" x="0px" y="0px"
	 viewBox="0 0 506.325 506.325" style="enable-background:new 0 0 506.325 506.325;" xml:space="preserve">
<g>
	<g>
		<g>
			<polygon points="503.936,414.56 266.731,2.016 265.941,5.344 349.355,357.6 			"/>
			<polygon points="326.827,354.976 254.976,51.616 183.125,354.976 			"/>
			<path d="M244.011,5.365l-0.789-3.328L0.384,424.352c-0.213,0.363-0.213,0.789-0.384,1.152l160.512-67.584L244.011,5.365z"/>
			<path d="M338.411,376.309H171.797L13.248,443.061l130.581,60.267c1.408,0.64,2.944,0.981,4.48,0.981h213.333
				c1.536,0,3.072-0.341,4.459-0.981l138.667-64c0.597-0.277,1.024-0.768,1.557-1.152L338.411,376.309z"/>
		</g>
	</g>
</g>
<g>
</g>
<g>
</g>
<g>
</g>
<g>
</g>
<g>
</g>
<g>
</g>
<g>
</g>
<g>
</g>
<g>
</g>
<g>
</g>
<g>
</g>
<g>
</g>
<g>
</g>
<g>
</g>
<g>
</g>
</svg>
