<?xml version="1.0" encoding="iso-8859-1"?>
<!-- Generator: Adobe Illustrator 19.0.0, SVG Export Plug-In . SVG Version: 6.00 Build 0)  -->
<svg version="1.1" id="Layer_1" xmlns="http://www.w3.org/2000/svg" xmlns:xlink="http://www.w3.org/1999/xlink" x="0px" y="0px"
	 viewBox="0 0 505.557 505.557" style="enable-background:new 0 0 505.557 505.557;" xml:space="preserve">
<g>
	<g>
		<g>
			<polygon points="300.011,355.051 244.629,71.957 211.328,355.051 			"/>
			<polygon points="231.125,2.944 230.805,1.28 0,420.928 151.211,370.517 			"/>
			<polygon points="354.923,355.051 280.448,144.043 321.728,355.051 			"/>
			<polygon points="325.909,376.384 350.165,500.352 497.515,441.408 367.488,376.384 			"/>
			<polygon points="505.557,421.547 253.333,1.173 253.077,2.325 378.624,358.08 			"/>
			<polygon points="201.067,376.384 169.451,386.923 143.915,504.384 329.237,504.384 304.192,376.384 			"/>
			<polygon points="6.507,441.216 123.157,499.52 145.941,394.731 			"/>
			<polygon points="205.739,220.032 174.741,362.688 189.547,357.739 			"/>
		</g>
	</g>
</g>
<g>
</g>
<g>
</g>
<g>
</g>
<g>
</g>
<g>
</g>
<g>
</g>
<g>
</g>
<g>
</g>
<g>
</g>
<g>
</g>
<g>
</g>
<g>
</g>
<g>
</g>
<g>
</g>
<g>
</g>
</svg>
