<?xml version="1.0" encoding="iso-8859-1"?>
<!-- Generator: Adobe Illustrator 19.0.0, SVG Export Plug-In . SVG Version: 6.00 Build 0)  -->
<svg version="1.1" id="Layer_1" xmlns="http://www.w3.org/2000/svg" xmlns:xlink="http://www.w3.org/1999/xlink" x="0px" y="0px"
	 viewBox="0 0 512.028 512.028" style="enable-background:new 0 0 512.028 512.028;" xml:space="preserve">
<g>
	<g>
		<g>
			<path d="M510.708,429.518L277.364,5.262v44.011l2.389,8.939c0.939,3.541-0.149,7.019-2.389,9.6v25.984
				c0.256-0.085,0.469-0.299,0.747-0.363c5.739-1.515,11.541,1.856,13.056,7.552l5.696,21.376
				c1.515,5.696-1.856,11.541-7.552,13.056c-0.917,0.256-1.835,0.363-2.752,0.363c-4.032,0-7.381-2.603-9.173-6.251v230.464h18.709
				c5.888,0,10.667,4.779,10.667,10.667c0,5.888-4.779,10.667-10.667,10.667h-18.731v125.483l226.795-61.845
				c3.157-0.875,5.739-3.115,7.019-6.123C512.458,435.812,512.287,432.377,510.708,429.518z M293.364,192.014l-5.717-21.376
				c-1.515-5.696,1.856-11.541,7.552-13.056c5.632-1.493,11.541,1.856,13.056,7.552l5.717,21.376
				c1.515,5.696-1.856,11.541-7.552,13.056c-0.917,0.256-1.835,0.363-2.752,0.363C298.954,199.95,294.644,196.793,293.364,192.014z
				 M310.474,256.185l-5.696-21.376c-1.515-5.696,1.856-11.541,7.552-13.056c5.717-1.536,11.541,1.856,13.056,7.552l5.696,21.376
				c1.515,5.696-1.856,11.541-7.552,13.056c-0.917,0.256-1.835,0.363-2.752,0.363C316.042,264.1,311.732,260.942,310.474,256.185z
				 M329.418,285.881c5.739-1.515,11.541,1.856,13.056,7.552l5.696,21.376c1.515,5.696-1.856,11.541-7.552,13.056
				c-0.917,0.256-1.835,0.363-2.752,0.363c-4.715,0-9.024-3.136-10.283-7.915l-5.696-21.376
				C320.351,293.241,323.743,287.396,329.418,285.881z M365.748,376.121c-1.664,4.181-5.675,6.72-9.899,6.72
				c-1.323,0-2.667-0.235-3.947-0.768l-1.92-0.747h-13.867c-5.888,0-10.667-4.779-10.667-10.667c0-5.888,4.779-10.667,10.667-10.667
				h2.667c0.171-4.565,3.093-8.704,7.744-9.941c5.632-1.493,11.541,1.856,13.056,7.552l1.472,5.483
				C365.578,365.689,367.754,371.15,365.748,376.121z M421.514,398.457c-1.664,4.181-5.675,6.699-9.899,6.699
				c-1.323,0-2.667-0.235-3.968-0.768l-18.603-7.445c-5.461-2.197-8.128-8.405-5.952-13.867c2.197-5.483,8.427-8.149,13.867-5.952
				l18.603,7.445C421.044,386.766,423.711,392.974,421.514,398.457z M468.596,417.294c-1.664,4.16-5.675,6.699-9.899,6.699
				c-1.323,0-2.667-0.235-3.968-0.768l-9.899-3.968c-5.461-2.197-8.128-8.405-5.952-13.867c2.197-5.483,8.384-8.128,13.867-5.952
				l9.899,3.968C468.127,405.604,470.794,411.812,468.596,417.294z"/>
			<path d="M241.908,135.694c-1.109,0-2.24-0.171-3.371-0.555c-5.589-1.856-8.597-7.893-6.741-13.483l7.125-21.397
				c1.856-5.589,7.851-8.597,13.483-6.741c1.365,0.448,2.581,1.173,3.605,2.069V68.494c-2.901-2.773-4.181-7.019-2.816-11.072
				l2.816-8.469V5.049L1.524,429.177c-1.749,2.901-2.005,6.443-0.704,9.579s3.989,5.44,7.275,6.251l247.936,61.973V116.388
				l-4.011,12.011C250.527,132.857,246.367,135.694,241.908,135.694z M210.378,185.87l7.125-21.419
				c1.856-5.589,7.893-8.597,13.504-6.741c5.589,1.856,8.597,7.915,6.741,13.504l-7.125,21.419
				c-1.493,4.459-5.653,7.296-10.133,7.296c-1.109,0-2.24-0.171-3.371-0.533C211.551,197.518,208.522,191.481,210.378,185.87z
				 M67.231,419.278l-9.899,3.968c-1.301,0.512-2.645,0.747-3.968,0.747c-4.224,0-8.235-2.539-9.899-6.699
				c-2.197-5.461,0.469-11.669,5.952-13.867l9.899-3.968c5.483-2.176,11.669,0.469,13.867,5.952
				C75.359,410.873,72.692,417.081,67.231,419.278z M122.996,396.964l-18.603,7.445c-1.301,0.512-2.645,0.768-3.968,0.768
				c-4.224,0-8.235-2.539-9.899-6.699c-2.197-5.461,0.469-11.669,5.952-13.867l18.603-7.445c5.397-2.197,11.691,0.469,13.867,5.952
				C131.146,388.558,128.479,394.766,122.996,396.964z M175.946,381.326l-15.787,0.768c-1.301,0.512-2.624,0.768-3.947,0.768
				c-4.224,0-8.235-2.539-9.899-6.72c-2.048-5.141,0.277-10.795,5.077-13.291l1.899-5.675c1.856-5.589,7.915-8.597,13.483-6.741
				c4.288,1.429,6.997,5.312,7.232,9.557h1.941c5.888,0,10.667,4.779,10.667,10.667S181.834,381.326,175.946,381.326z
				 M194.932,299.684l-7.147,21.419c-1.472,4.459-5.653,7.296-10.112,7.296c-1.109,0-2.24-0.171-3.371-0.533
				c-5.589-1.856-8.597-7.915-6.741-13.504l7.147-21.419c1.835-5.589,7.851-8.597,13.483-6.741
				C193.78,288.036,196.788,294.094,194.932,299.684z M195.722,263.587c-5.589-1.856-8.597-7.893-6.741-13.483l7.125-21.397
				c1.856-5.589,7.829-8.597,13.483-6.741c5.589,1.856,8.597,7.893,6.741,13.483l-7.125,21.397
				c-1.493,4.48-5.632,7.296-10.112,7.296C197.983,264.142,196.852,263.972,195.722,263.587z M236.02,381.326H216.01
				c-5.888,0-10.667-4.779-10.667-10.667c0-5.888,4.779-10.667,10.667-10.667h20.011c5.888,0,10.667,4.779,10.667,10.667
				C246.687,376.548,241.908,381.326,236.02,381.326z"/>
		</g>
	</g>
</g>
<g>
</g>
<g>
</g>
<g>
</g>
<g>
</g>
<g>
</g>
<g>
</g>
<g>
</g>
<g>
</g>
<g>
</g>
<g>
</g>
<g>
</g>
<g>
</g>
<g>
</g>
<g>
</g>
<g>
</g>
</svg>
