<?xml version="1.0" encoding="iso-8859-1"?>
<!-- Generator: Adobe Illustrator 19.0.0, SVG Export Plug-In . SVG Version: 6.00 Build 0)  -->
<svg version="1.1" id="Layer_1" xmlns="http://www.w3.org/2000/svg" xmlns:xlink="http://www.w3.org/1999/xlink" x="0px" y="0px"
	 viewBox="0 0 511.285 511.285" style="enable-background:new 0 0 511.285 511.285;" xml:space="preserve">
<g>
	<g>
		<path d="M425.712,465.099l-160-458.667c-2.965-8.576-17.173-8.576-20.117,0l-160,458.667c-0.405,1.131-0.619,2.325-0.619,3.52
			c0,41.472,153.216,42.667,170.667,42.667s170.667-1.195,170.667-42.667C426.309,467.424,426.096,466.229,425.712,465.099z
			 M118.299,468.427c-1.28,0.981-1.621,1.536-1.621,1.557c0,5.888-4.629,9.984-10.517,9.984s-10.517-5.461-10.517-11.349
			c0-4.437,1.685-10.987,9.707-17.131c4.672-3.563,11.371-2.709,14.933,1.984C123.867,458.144,122.992,464.843,118.299,468.427z
			 M173.253,452.704c-7.168,1.045-13.867,2.219-20.011,3.52c-0.725,0.149-1.472,0.235-2.219,0.235
			c-4.928,0-9.344-3.456-10.411-8.469c-1.216-5.76,2.475-11.413,8.256-12.629c6.571-1.365,13.696-2.645,21.312-3.733
			c5.675-0.896,11.243,3.157,12.096,9.024C183.109,446.453,179.056,451.851,173.253,452.704z M234.757,447.605
			c-7.061,0.213-13.931,0.533-20.629,0.939c-0.235,0-0.448,0.021-0.661,0.021c-5.611,0-10.283-4.352-10.645-10.005
			c-0.384-5.867,4.096-10.944,9.984-11.307c6.891-0.448,14.016-0.768,21.291-0.981h0.341c5.76,0,10.475,4.565,10.667,10.347
			C245.253,442.507,240.624,447.413,234.757,447.605z M308.08,438.539c-0.384,5.653-5.056,10.005-10.667,10.005
			c-0.213,0-0.448,0-0.64-0.021c-6.699-0.405-13.611-0.725-20.672-0.939c-5.867-0.192-10.496-5.099-10.325-10.987
			c0.192-5.888,4.032-10.368,11.008-10.347c7.275,0.235,14.379,0.555,21.291,0.981C303.941,427.595,308.421,432.651,308.08,438.539z
			 M370.288,447.861c-1.045,5.035-5.483,8.491-10.411,8.491c-0.725,0-1.451-0.064-2.197-0.213
			c-6.165-1.301-12.885-2.453-20.032-3.499c-5.803-0.853-9.856-6.251-9.024-12.075c0.853-5.845,6.379-9.984,12.096-9.024
			c7.616,1.109,14.741,2.347,21.291,3.712C367.792,436.448,371.504,442.101,370.288,447.861z M404.976,479.285
			c-5.632,0-10.219-4.352-10.645-9.856c0,0-0.512-0.363-1.344-0.981c-4.693-3.584-5.568-10.283-1.984-14.955
			c3.563-4.693,10.261-5.547,14.933-1.984c8.021,6.144,9.707,12.693,9.707,17.131C415.643,474.507,410.864,479.285,404.976,479.285z
			"/>
	</g>
</g>
<g>
</g>
<g>
</g>
<g>
</g>
<g>
</g>
<g>
</g>
<g>
</g>
<g>
</g>
<g>
</g>
<g>
</g>
<g>
</g>
<g>
</g>
<g>
</g>
<g>
</g>
<g>
</g>
<g>
</g>
</svg>
