<?xml version="1.0" encoding="iso-8859-1"?>
<!-- Generator: Adobe Illustrator 19.0.0, SVG Export Plug-In . SVG Version: 6.00 Build 0)  -->
<svg version="1.1" id="Layer_1" xmlns="http://www.w3.org/2000/svg" xmlns:xlink="http://www.w3.org/1999/xlink" x="0px" y="0px"
	 viewBox="0 0 512.011 512.011" style="enable-background:new 0 0 512.011 512.011;" xml:space="preserve">
<g>
	<g>
		<g>
			<path d="M307.052,379.622h-21.867c-5.888,0-10.667-4.779-10.667-10.667c0-5.888,4.779-10.667,10.667-10.667h18.176L247.98,75.28
				l-0.363,3.115c-0.576,4.864-4.395,8.405-9.003,9.131l-4.245,19.477c5.376,1.088,9.152,6.016,8.512,11.563l-2.368,20.075
				c-0.64,5.419-5.248,9.408-10.581,9.408c-0.427,0-0.832-0.021-1.259-0.064c-1.088-0.128-2.048-0.555-2.987-0.981l-4.544,20.907
				c1.664-0.725,3.435-1.173,5.312-0.96c5.845,0.683,10.048,5.995,9.344,11.84l-2.347,20.075c-0.64,5.419-5.248,9.429-10.581,9.429
				c-0.427,0-0.832-0.021-1.259-0.064c-3.605-0.427-6.421-2.688-8-5.675L177.9,366.8c4.224,0.256,8.043,2.987,9.472,7.232
				c1.856,5.589-1.152,11.627-6.741,13.483l-7.787,2.603L147.287,507.6h185.28L307.5,379.515
				C307.329,379.515,307.201,379.622,307.052,379.622z M205.164,256.656l2.368-20.075c0.683-5.845,5.888-10.048,11.84-9.344
				c5.845,0.683,10.027,5.995,9.344,11.84l-2.368,20.075c-0.64,5.419-5.248,9.408-10.581,9.408c-0.427,0-0.832-0.021-1.259-0.064
				C208.663,267.814,204.481,262.502,205.164,256.656z M198.06,316.923l2.368-20.075c0.683-5.845,5.952-10.069,11.84-9.344
				c5.845,0.683,10.027,5.995,9.344,11.84l-2.368,20.075c-0.64,5.419-5.248,9.408-10.581,9.408c-0.427,0-0.832-0.021-1.259-0.064
				C201.559,328.08,197.377,322.768,198.06,316.923z M241.452,379.622h-21.845c-3.52,0-6.507-1.813-8.448-4.459
				c-1.963,2.667-4.992,4.459-8.469,4.459c-0.427,0-0.832-0.021-1.259-0.064c-5.845-0.683-10.027-5.995-9.344-11.84l1.259-10.603
				c0.704-5.845,5.995-10.112,11.84-9.344c5.845,0.683,10.027,5.995,9.344,11.84l-0.021,0.149c1.536-0.853,3.2-1.472,5.099-1.472
				h21.845c5.888,0,10.667,4.779,10.667,10.667C252.119,374.843,247.361,379.622,241.452,379.622z"/>
			<path d="M510.508,427.451L256.684,4.411l-0.256,1.152l2.539,7.211c0.832,2.347,0.619,4.736-0.107,6.912l5.163,26.347
				c4.075,0.341,7.744,2.944,9.173,7.04l7.104,20.139c1.963,5.547-0.96,11.648-6.507,13.611c-0.576,0.192-1.173,0.192-1.749,0.299
				l4.501,23.019c1.173-1.344,2.56-2.517,4.352-3.157c5.589-1.92,11.648,0.96,13.611,6.507l7.104,20.16
				c1.963,5.547-0.96,11.648-6.507,13.611c-1.173,0.405-2.368,0.597-3.563,0.597c-3.627,0-6.72-2.176-8.683-5.291l70.613,360.96
				l151.787-60.715c2.901-1.173,5.163-3.541,6.144-6.507C512.471,433.403,512.108,430.118,510.508,427.451z M312.919,208.358
				c-4.395,0-8.512-2.731-10.069-7.104l-7.104-20.16c-1.963-5.547,0.96-11.648,6.507-13.611c5.611-1.899,11.648,0.96,13.611,6.507
				l7.104,20.16c1.963,5.547-0.96,11.648-6.507,13.611C315.287,208.166,314.092,208.358,312.919,208.358z M334.252,268.795
				c-4.395,0-8.512-2.731-10.069-7.104l-7.104-20.139c-1.963-5.547,0.96-11.648,6.507-13.611c5.568-1.899,11.648,0.96,13.611,6.507
				l7.104,20.139c1.963,5.547-0.96,11.648-6.507,13.611C336.62,268.603,335.425,268.795,334.252,268.795z M344.919,288.379
				c5.589-1.92,11.648,0.96,13.611,6.507l7.104,20.139c1.963,5.547-0.96,11.648-6.507,13.611c-1.173,0.405-2.368,0.597-3.563,0.597
				c-4.395,0-8.512-2.731-10.069-7.104l-7.104-20.139C336.449,296.443,339.351,290.342,344.919,288.379z M376.919,379.024
				c-1.195,0.405-2.389,0.597-3.563,0.597c-0.107,0-0.171-0.085-0.277-0.085c-0.149,0-0.277,0.085-0.448,0.085h-21.867
				c-5.888,0-10.667-4.779-10.667-10.667c0-5.888,4.779-10.667,10.667-10.667h8.384c0.235-4.16,2.923-7.979,7.104-9.451
				c5.611-1.92,11.648,0.96,13.611,6.507l3.563,10.069C385.367,370.96,382.465,377.019,376.919,379.024z M440.919,402.726
				c-1.877,3.733-5.632,5.888-9.557,5.888c-1.6,0-3.221-0.363-4.757-1.131l-19.563-9.771c-5.269-2.645-7.403-9.045-4.779-14.315
				c2.645-5.269,9.024-7.381,14.315-4.779l19.563,9.771C441.409,391.056,443.564,397.456,440.919,402.726z M489.559,427.067
				c-1.877,3.733-5.632,5.888-9.557,5.888c-1.6,0-3.221-0.363-4.757-1.131l-9.536-4.779c-5.269-2.645-7.403-9.045-4.779-14.315
				c2.645-5.269,9.024-7.381,14.315-4.779l9.536,4.779C490.071,415.355,492.204,421.798,489.559,427.067z"/>
			<path d="M146.391,387.728c-1.856-5.589,1.152-11.627,6.741-13.483l1.408-0.469L234.455,6.16l-0.32-1.6L1.324,427.835
				c-1.387,2.539-1.707,5.547-0.853,8.32c0.875,2.773,2.816,5.056,5.419,6.357L126.465,502.8l23.893-109.739
				C148.567,391.803,147.137,389.968,146.391,387.728z M56.172,429.008l-10.112,3.371c-1.109,0.384-2.261,0.555-3.371,0.555
				c-4.459,0-8.619-2.816-10.112-7.296c-1.856-5.568,1.152-11.627,6.741-13.461l10.112-3.371c5.589-1.877,11.627,1.152,13.483,6.741
				C64.791,421.115,61.783,427.174,56.172,429.008z M118.401,408.294l-20.736,6.912c-1.131,0.384-2.261,0.555-3.371,0.555
				c-4.459,0-8.619-2.816-10.112-7.296c-1.856-5.589,1.152-11.627,6.741-13.504l20.736-6.912c5.611-1.899,11.627,1.152,13.483,6.741
				C127.02,400.4,123.991,406.395,118.401,408.294z"/>
		</g>
	</g>
</g>
<g>
</g>
<g>
</g>
<g>
</g>
<g>
</g>
<g>
</g>
<g>
</g>
<g>
</g>
<g>
</g>
<g>
</g>
<g>
</g>
<g>
</g>
<g>
</g>
<g>
</g>
<g>
</g>
<g>
</g>
</svg>
