<?xml version="1.0" encoding="iso-8859-1"?>
<!-- Generator: Adobe Illustrator 19.0.0, SVG Export Plug-In . SVG Version: 6.00 Build 0)  -->
<svg version="1.1" id="Layer_1" xmlns="http://www.w3.org/2000/svg" xmlns:xlink="http://www.w3.org/1999/xlink" x="0px" y="0px"
	 viewBox="0 0 512 512" style="enable-background:new 0 0 512 512;" xml:space="preserve">
<g>
	<g>
		<g>
			<path d="M362.667,164.416v176.917c5.888,0,10.667,4.779,10.667,10.667c0,5.888-4.779,10.667-10.667,10.667v143.083
				l146.219-146.219c2.005-2.005,3.115-4.715,3.115-7.552V15.061L362.667,164.416z M426.667,362.667h-21.333
				c-5.888,0-10.667-4.779-10.667-10.667c0-5.888,4.779-10.667,10.667-10.667h21.333c5.888,0,10.667,4.779,10.667,10.667
				C437.333,357.888,432.555,362.667,426.667,362.667z M480,362.667h-10.667c-5.888,0-10.667-4.779-10.667-10.667
				c0-5.888,4.779-10.667,10.667-10.667H480c5.888,0,10.667,4.779,10.667,10.667C490.667,357.888,485.888,362.667,480,362.667z"/>
			<path d="M160,0c-2.837,0-5.547,1.131-7.552,3.115L6.229,149.333h143.104c0-5.888,4.779-10.667,10.667-10.667
				s10.667,4.779,10.667,10.667h176.917L496.917,0H160z M170.667,106.667c0,5.888-4.779,10.667-10.667,10.667
				s-10.667-4.779-10.667-10.667V85.333c0-5.888,4.779-10.667,10.667-10.667s10.667,4.779,10.667,10.667V106.667z M170.667,42.667
				c0,5.888-4.779,10.667-10.667,10.667s-10.667-4.779-10.667-10.667V32c0-5.888,4.779-10.667,10.667-10.667
				S170.667,26.112,170.667,32V42.667z"/>
			<path d="M160,181.333c-5.888,0-10.667-4.779-10.667-10.667H0v330.667C0,507.221,4.779,512,10.667,512h330.667V362.667
				c-5.888,0-10.667-4.779-10.667-10.667c0-5.888,4.779-10.667,10.667-10.667V170.667H170.667
				C170.667,176.555,165.888,181.333,160,181.333z M149.333,213.333c0-5.888,4.779-10.667,10.667-10.667s10.667,4.779,10.667,10.667
				v21.333c0,5.888-4.779,10.667-10.667,10.667s-10.667-4.779-10.667-10.667V213.333z M149.333,277.333
				c0-5.888,4.779-10.667,10.667-10.667s10.667,4.779,10.667,10.667v21.333c0,5.888-4.779,10.667-10.667,10.667
				s-10.667-4.779-10.667-10.667V277.333z M41.749,485.333l-7.552,7.552c-2.091,2.091-4.821,3.115-7.552,3.115
				s-5.461-1.045-7.552-3.115c-4.16-4.16-4.16-10.923,0-15.083l7.552-7.552c4.16-4.16,10.923-4.16,15.083,0
				C45.888,474.411,45.909,481.173,41.749,485.333z M86.101,440.981l-14.784,14.784c-2.091,2.091-4.821,3.115-7.552,3.115
				s-5.461-1.045-7.552-3.115c-4.16-4.16-4.16-10.923,0-15.083l14.784-14.784c4.16-4.16,10.923-4.16,15.083,0
				C90.24,430.059,90.261,436.821,86.101,440.981z M130.432,396.651l-14.784,14.784c-2.091,2.091-4.821,3.115-7.552,3.115
				s-5.461-1.045-7.552-3.115c-4.16-4.16-4.16-10.923,0-15.083l14.784-14.784c4.16-4.16,10.923-4.16,15.083,0
				C134.571,385.728,134.613,392.469,130.432,396.651z M277.333,341.333h21.333c5.888,0,10.667,4.779,10.667,10.667
				c0,5.888-4.779,10.667-10.667,10.667h-21.333c-5.888,0-10.667-4.779-10.667-10.667
				C266.667,346.112,271.445,341.333,277.333,341.333z M213.333,341.333h21.333c5.888,0,10.667,4.779,10.667,10.667
				c0,5.888-4.779,10.667-10.667,10.667h-21.333c-5.888,0-10.667-4.779-10.667-10.667
				C202.667,346.112,207.445,341.333,213.333,341.333z M181.312,352c0,5.888-4.757,10.667-10.645,10.667h-6.251L160,367.083
				c-2.091,2.091-4.821,3.115-7.552,3.115s-5.461-1.045-7.552-3.115c-4.16-4.16-4.16-10.923,0-15.083l4.416-4.416v-6.251
				c0-5.888,4.779-10.667,10.667-10.667s10.667,4.779,10.667,10.667C176.533,341.333,181.312,346.112,181.312,352z"/>
		</g>
	</g>
</g>
<g>
</g>
<g>
</g>
<g>
</g>
<g>
</g>
<g>
</g>
<g>
</g>
<g>
</g>
<g>
</g>
<g>
</g>
<g>
</g>
<g>
</g>
<g>
</g>
<g>
</g>
<g>
</g>
<g>
</g>
</svg>
