<?xml version="1.0" encoding="iso-8859-1"?>
<!-- Generator: Adobe Illustrator 19.0.0, SVG Export Plug-In . SVG Version: 6.00 Build 0)  -->
<svg version="1.1" id="Layer_1" xmlns="http://www.w3.org/2000/svg" xmlns:xlink="http://www.w3.org/1999/xlink" x="0px" y="0px"
	 viewBox="0 0 512 512" style="enable-background:new 0 0 512 512;" xml:space="preserve">
<g>
	<g>
		<g>
			<path d="M74.667,437.333c0,2.837,1.131,5.547,3.115,7.552l60.885,60.885V143.061l-64-64V437.333z M112.021,406.72l9.259-5.291
				c5.099-2.965,11.627-1.152,14.549,3.968c2.923,5.12,1.173,11.627-3.947,14.549l-9.259,5.291
				c-1.664,0.981-3.499,1.429-5.291,1.429c-3.712,0-7.296-1.92-9.28-5.376C105.131,416.171,106.901,409.664,112.021,406.72z"/>
			<path d="M372.16,119.061c0.704,1.429,1.173,2.987,1.173,4.651v19.904c0,5.888-4.779,10.667-10.667,10.667
				S352,149.504,352,143.616v-12.117l-21.333,13.12v218.048h10.475c5.888,0,10.667,4.779,10.667,10.667
				c0,5.888-4.779,10.667-10.667,10.667h-10.475v123.371l101.483-60.885c3.2-1.92,5.184-5.397,5.184-9.152V78.997L372.16,119.061z
				 M373.333,373.333c0,5.888-4.779,10.667-10.667,10.667S352,379.221,352,373.333v-10.667c0-5.888,4.779-10.667,10.667-10.667
				s10.667,4.779,10.667,10.667V373.333z M373.333,302.933c0,5.888-4.779,10.667-10.667,10.667S352,308.821,352,302.933v-19.904
				c0-5.888,4.779-10.667,10.667-10.667s10.667,4.779,10.667,10.667V302.933z M373.333,223.275c0,5.888-4.779,10.667-10.667,10.667
				S352,229.163,352,223.275v-19.904c0-5.888,4.779-10.667,10.667-10.667s10.667,4.779,10.667,10.667V223.275z M402.219,412.885
				c-2.091,2.091-4.821,3.115-7.552,3.115s-5.461-1.045-7.552-3.115l-7.552-7.552c-4.16-4.16-4.16-10.923,0-15.083
				s10.923-4.16,15.083,0l7.552,7.552C406.379,401.941,406.379,408.704,402.219,412.885z"/>
			<path d="M192,154.283c-3.755,0-6.891-2.027-8.789-4.949H160V512h149.333V149.333H200.789
				C198.891,152.235,195.755,154.283,192,154.283z M197.611,382.165c-0.277,0.192-0.448,0.491-0.768,0.661l-16.235,9.28
				c-1.664,0.96-3.499,1.408-5.291,1.408c-3.712,0-7.296-1.92-9.28-5.376c-2.923-5.12-1.152-11.627,3.968-14.549l11.307-6.464
				v-4.459c0-5.888,4.779-10.667,10.667-10.667s10.667,4.779,10.667,10.667v10.667h0.021
				C202.667,377.109,200.597,380.288,197.611,382.165z M202.667,302.933c0,5.888-4.779,10.667-10.667,10.667
				s-10.667-4.779-10.667-10.667v-19.904c0-5.888,4.779-10.667,10.667-10.667s10.667,4.779,10.667,10.667V302.933z M247.616,362.667
				h18.709c5.888,0,10.667,4.779,10.667,10.667c0,5.888-4.779,10.667-10.667,10.667h-18.709c-5.888,0-10.667-4.779-10.667-10.667
				C236.949,367.445,241.728,362.667,247.616,362.667z M202.667,223.275c0,5.888-4.779,10.667-10.667,10.667
				s-10.667-4.779-10.667-10.667v-19.883c0-5.888,4.779-10.667,10.667-10.667s10.667,4.779,10.667,10.667V223.275z"/>
			<path d="M370.197,3.115C368.192,1.109,365.483,0,362.645,0H191.979c-1.941,0-3.84,0.512-5.483,1.515l-99.52,59.712L153.749,128
				h27.584v-4.267c0-5.888,4.779-10.667,10.667-10.667s10.667,4.779,10.667,10.667V128h114.304l110.251-67.84L370.197,3.115z
				 M202.667,64c0,5.888-4.779,10.667-10.667,10.667S181.333,69.888,181.333,64V53.333c0-5.888,4.779-10.667,10.667-10.667
				s10.667,4.779,10.667,10.667V64z M362.667,74.667C356.779,74.667,352,69.888,352,64V53.333c0-5.888,4.779-10.667,10.667-10.667
				s10.667,4.779,10.667,10.667V64C373.333,69.888,368.555,74.667,362.667,74.667z"/>
		</g>
	</g>
</g>
<g>
</g>
<g>
</g>
<g>
</g>
<g>
</g>
<g>
</g>
<g>
</g>
<g>
</g>
<g>
</g>
<g>
</g>
<g>
</g>
<g>
</g>
<g>
</g>
<g>
</g>
<g>
</g>
<g>
</g>
</svg>
