<?xml version="1.0" encoding="iso-8859-1"?>
<!-- Generator: Adobe Illustrator 19.0.0, SVG Export Plug-In . SVG Version: 6.00 Build 0)  -->
<svg version="1.1" id="Layer_1" xmlns="http://www.w3.org/2000/svg" xmlns:xlink="http://www.w3.org/1999/xlink" x="0px" y="0px"
	 viewBox="0 0 509.013 509.013" style="enable-background:new 0 0 509.013 509.013;" xml:space="preserve">
<g>
	<g>
		<g>
			<polygon points="158.507,116.373 51.84,79.04 51.84,433.003 158.507,367.381 			"/>
			<polygon points="65.6,449.6 243.84,509.013 243.84,384 172.203,384 			"/>
			<polygon points="158.507,4.629 64.683,60.928 158.507,93.76 			"/>
			<polygon points="179.84,362.667 243.84,362.667 243.84,146.24 179.84,123.84 			"/>
			<polygon points="350.507,4.629 350.507,95.424 447.787,62.997 			"/>
			<polygon points="265.173,384 265.173,509.013 443.413,449.6 336.811,384 			"/>
			<polygon points="329.173,0 179.84,0 179.84,101.227 254.592,127.403 329.173,102.528 			"/>
			<polygon points="350.507,117.909 350.507,367.381 457.173,433.003 457.173,82.347 			"/>
			<polygon points="329.173,362.667 329.173,125.013 265.173,146.347 265.173,362.667 			"/>
		</g>
	</g>
</g>
<g>
</g>
<g>
</g>
<g>
</g>
<g>
</g>
<g>
</g>
<g>
</g>
<g>
</g>
<g>
</g>
<g>
</g>
<g>
</g>
<g>
</g>
<g>
</g>
<g>
</g>
<g>
</g>
<g>
</g>
</svg>
