<?xml version="1.0" encoding="iso-8859-1"?>
<!-- Generator: Adobe Illustrator 19.0.0, SVG Export Plug-In . SVG Version: 6.00 Build 0)  -->
<svg version="1.1" id="Layer_1" xmlns="http://www.w3.org/2000/svg" xmlns:xlink="http://www.w3.org/1999/xlink" x="0px" y="0px"
	 viewBox="0 0 512 512" style="enable-background:new 0 0 512 512;" xml:space="preserve">
<g>
	<g>
		<g>
			<path d="M256,85.333c105.28,0,170.667-16.363,170.667-42.667c0-1.621-0.405-3.115-1.067-4.48
				C415.872,5.141,301.653,0.661,265.493,0.085C262.336,0.064,259.243,0,256,0s-6.336,0.064-9.515,0.085
				C210.325,0.661,96.107,5.12,86.379,38.187c-0.64,1.365-1.045,2.859-1.045,4.48C85.333,68.971,150.72,85.333,256,85.333z"/>
			<path d="M85.333,77.888v391.445C85.333,510.805,238.549,512,256,512s170.667-1.195,170.667-42.667V77.888
				c-28.48,19.093-85.44,28.779-170.667,28.779S113.835,96.981,85.333,77.888z M118.677,469.141
				c-1.28,0.981-1.621,1.536-1.621,1.557c0,5.888-4.629,9.984-10.517,9.984S96,475.221,96,469.333
				c0-4.437,1.685-10.987,9.707-17.131c4.672-3.563,11.371-2.709,14.933,1.984C124.224,458.859,123.349,465.557,118.677,469.141z
				 M173.611,453.419c-7.168,1.045-13.867,2.219-20.011,3.52c-0.725,0.149-1.472,0.235-2.219,0.235
				c-4.928,0-9.344-3.456-10.411-8.469c-1.216-5.76,2.475-11.413,8.256-12.629c6.571-1.365,13.696-2.645,21.312-3.733
				c5.696-0.981,11.243,3.179,12.096,9.024C183.467,447.168,179.435,452.565,173.611,453.419z M235.115,448.32
				c-7.061,0.213-13.931,0.533-20.629,0.939c-0.235,0-0.448,0.021-0.661,0.021c-5.611,0-10.283-4.352-10.645-10.005
				c-0.384-5.867,4.096-10.944,9.984-11.307c6.891-0.448,14.016-0.768,21.291-0.981c6.741-0.171,10.816,4.459,11.008,10.347
				C245.611,443.221,241.003,448.128,235.115,448.32z M391.36,454.208c3.563-4.693,10.261-5.547,14.933-1.984
				c8.021,6.144,9.707,12.693,9.707,17.131c0,5.867-4.779,10.645-10.667,10.645c-5.632,0-10.219-4.352-10.645-9.856
				c0,0.021-0.512-0.363-1.344-0.981C388.672,465.579,387.776,458.88,391.36,454.208z M329.003,441.28
				c0.832-5.845,6.272-9.941,12.096-9.024c7.616,1.109,14.741,2.347,21.291,3.712c5.781,1.195,9.493,6.848,8.277,12.608
				c-1.045,5.035-5.483,8.491-10.411,8.491c-0.725,0-1.451-0.064-2.197-0.213c-6.165-1.301-12.885-2.453-20.032-3.499
				C332.224,452.501,328.171,447.104,329.003,441.28z M276.8,426.965h0.341c7.275,0.235,14.379,0.555,21.291,0.981
				c5.867,0.363,10.347,5.419,10.005,11.307c-0.384,5.653-5.056,10.005-10.667,10.005c-0.213,0-0.448,0-0.64-0.021
				c-6.699-0.405-13.611-0.725-20.672-0.939c-5.867-0.192-10.496-5.099-10.325-10.987
				C266.325,431.531,271.061,426.965,276.8,426.965z"/>
		</g>
	</g>
</g>
<g>
</g>
<g>
</g>
<g>
</g>
<g>
</g>
<g>
</g>
<g>
</g>
<g>
</g>
<g>
</g>
<g>
</g>
<g>
</g>
<g>
</g>
<g>
</g>
<g>
</g>
<g>
</g>
<g>
</g>
</svg>
