<?xml version="1.0" encoding="iso-8859-1"?>
<!-- Generator: Adobe Illustrator 19.0.0, SVG Export Plug-In . SVG Version: 6.00 Build 0)  -->
<svg version="1.1" id="Layer_1" xmlns="http://www.w3.org/2000/svg" xmlns:xlink="http://www.w3.org/1999/xlink" x="0px" y="0px"
	 viewBox="0 0 509.035 509.035" style="enable-background:new 0 0 509.035 509.035;" xml:space="preserve">
<g>
	<g>
		<g>
			<path d="M346.912,119.104c-1.899,1.685-4.331,2.795-7.061,2.795c-0.299,0-0.533-0.149-0.832-0.171l-73.835,24.619v216.384
				c5.717,0.192,10.304,4.821,10.304,10.603c0,5.781-4.587,10.389-10.304,10.603v125.099l184.704-61.568
				c4.352-1.451,7.296-5.525,7.296-10.112V82.368L346.912,119.104z M329.184,156.971c0-5.888,4.779-10.667,10.667-10.667
				c5.888,0,10.667,4.779,10.667,10.667v22.848c0,5.888-4.779,10.667-10.667,10.667c-5.888,0-10.667-4.779-10.667-10.667V156.971z
				 M329.184,225.536c0-5.888,4.779-10.667,10.667-10.667c5.888,0,10.667,4.779,10.667,10.667v22.848
				c0,5.888-4.779,10.667-10.667,10.667c-5.888,0-10.667-4.779-10.667-10.667V225.536z M329.184,294.101
				c0-5.888,4.779-10.667,10.667-10.667c5.888,0,10.667,4.779,10.667,10.667v22.848c0,5.888-4.779,10.667-10.667,10.667
				c-5.888,0-10.667-4.779-10.667-10.667V294.101z M350.539,373.333h-0.021c0,5.888-4.779,10.667-10.667,10.667
				c-2.517,0-4.757-1.003-6.571-2.475c-1.835,1.472-4.053,2.475-6.571,2.475H306.08c-5.888,0-10.667-4.779-10.667-10.667
				s4.779-10.667,10.667-10.667h20.629c0.875,0,1.664,0.299,2.496,0.491v-0.491c0-5.888,4.779-10.667,10.667-10.667
				s10.667,4.779,10.667,10.667V373.333z M390.197,404.8c-2.027,3.221-5.504,5.013-9.045,5.013c-1.92,0-3.883-0.512-5.653-1.621
				l-17.493-10.923c-4.992-3.115-6.507-9.707-3.392-14.699c3.115-4.971,9.685-6.528,14.699-3.392l17.493,10.923
				C391.819,393.216,393.333,399.808,390.197,404.8z M434.229,432.32c-2.027,3.243-5.504,5.013-9.045,5.013
				c-1.92,0-3.883-0.512-5.653-1.621l-9.045-5.653c-4.992-3.115-6.507-9.707-3.392-14.699c3.115-4.992,9.707-6.528,14.699-3.392
				l9.045,5.653C435.851,420.757,437.344,427.328,434.229,432.32z"/>
			<path d="M329.184,88.384c0-5.888,4.779-10.667,10.667-10.667c5.888,0,10.667,4.779,10.667,10.667v7.04l97.28-32.427
				L345.333,1.515C343.669,0.512,341.771,0,339.851,0H169.184c-1.941,0-3.84,0.512-5.483,1.515L64.693,60.907l93.824,32.853v-5.397
				c0-5.888,4.779-10.667,10.667-10.667s10.667,4.779,10.667,10.667v12.864l74.752,26.155l74.581-24.853V88.384z M329.184,32
				c0-5.888,4.779-10.667,10.667-10.667c5.888,0,10.667,4.779,10.667,10.667v10.667c0,5.888-4.779,10.667-10.667,10.667
				c-5.888,0-10.667-4.779-10.667-10.667V32z M179.851,42.667c0,5.888-4.779,10.667-10.667,10.667s-10.667-4.779-10.667-10.667V32
				c0-5.888,4.779-10.667,10.667-10.667S179.851,26.112,179.851,32V42.667z"/>
			<path d="M169.184,121.899c-3.691,0-6.784-1.984-8.704-4.843L51.851,79.04v358.293c0,4.587,2.944,8.661,7.296,10.112
				l184.704,61.568V383.936c-5.717-0.192-10.304-4.821-10.304-10.603c0-5.781,4.587-10.389,10.304-10.603V146.24l-71.424-25.003
				C171.381,121.579,170.336,121.899,169.184,121.899z M158.517,225.515c0-5.888,4.779-10.667,10.667-10.667
				s10.667,4.779,10.667,10.667v22.848c0,5.888-4.779,10.667-10.667,10.667s-10.667-4.779-10.667-10.667V225.515z M158.517,294.101
				c0-5.888,4.779-10.667,10.667-10.667s10.667,4.779,10.667,10.667v22.848c0,5.888-4.779,10.667-10.667,10.667
				s-10.667-4.779-10.667-10.667V294.101z M98.549,430.059l-9.045,5.653c-1.771,1.109-3.712,1.621-5.653,1.621
				c-3.563,0-7.04-1.771-9.045-5.013c-3.115-4.992-1.621-11.563,3.392-14.699l9.045-5.653c4.992-3.136,11.584-1.6,14.699,3.392
				C105.056,420.352,103.541,426.923,98.549,430.059z M151.008,397.269l-17.493,10.923c-1.771,1.109-3.712,1.621-5.653,1.621
				c-3.563,0-7.04-1.771-9.045-5.013c-3.115-4.992-1.6-11.584,3.392-14.699l17.493-10.923c5.013-3.115,11.584-1.6,14.699,3.392
				C157.536,387.563,156,394.155,151.008,397.269z M202.955,362.667c5.888,0,10.667,4.779,10.667,10.667S208.843,384,202.955,384
				h-20.629c-2.517,0-4.736-1.003-6.571-2.475c-1.835,1.472-4.053,2.475-6.571,2.475c-5.888,0-10.667-4.779-10.667-10.667v-10.667
				c0-5.888,4.779-10.667,10.667-10.667s10.667,4.779,10.667,10.667v0.491c0.811-0.192,1.6-0.491,2.475-0.491H202.955z
				 M179.851,156.949v22.848c0,5.888-4.779,10.667-10.667,10.667s-10.667-4.779-10.667-10.667v-22.848
				c0-5.888,4.779-10.667,10.667-10.667S179.851,151.061,179.851,156.949z"/>
		</g>
	</g>
</g>
<g>
</g>
<g>
</g>
<g>
</g>
<g>
</g>
<g>
</g>
<g>
</g>
<g>
</g>
<g>
</g>
<g>
</g>
<g>
</g>
<g>
</g>
<g>
</g>
<g>
</g>
<g>
</g>
<g>
</g>
</svg>
