<?xml version="1.0" encoding="iso-8859-1"?>
<!-- Generator: Adobe Illustrator 19.0.0, SVG Export Plug-In . SVG Version: 6.00 Build 0)  -->
<svg version="1.1" id="Layer_1" xmlns="http://www.w3.org/2000/svg" xmlns:xlink="http://www.w3.org/1999/xlink" x="0px" y="0px"
	 viewBox="0 0 512 512" style="enable-background:new 0 0 512 512;" xml:space="preserve">
<g>
	<g>
		<g>
			<polygon points="181.333,367.296 181.333,149.333 160,149.333 160,380.096 			"/>
			<polygon points="181.333,4.629 86.976,61.227 153.749,128 181.333,128 			"/>
			<polygon points="138.667,505.749 138.667,417.771 83.691,450.773 			"/>
			<polygon points="373.333,6.251 373.333,93.312 427.243,60.16 			"/>
			<polygon points="160,404.971 160,512 309.333,512 309.333,384 194.965,384 			"/>
			<polygon points="74.667,431.296 138.667,392.896 138.667,143.083 74.667,79.083 			"/>
			<polygon points="330.667,384 330.667,507.371 425.024,450.773 358.251,384 			"/>
			<polygon points="373.333,118.379 373.333,368.917 437.333,432.917 437.333,78.997 			"/>
			<rect x="202.667" y="149.333" width="106.667" height="213.333"/>
			<polygon points="352,0 202.667,0 202.667,128 316.971,128 352,106.453 			"/>
			<polygon points="352,362.667 352,131.499 330.667,144.619 330.667,362.667 			"/>
		</g>
	</g>
</g>
<g>
</g>
<g>
</g>
<g>
</g>
<g>
</g>
<g>
</g>
<g>
</g>
<g>
</g>
<g>
</g>
<g>
</g>
<g>
</g>
<g>
</g>
<g>
</g>
<g>
</g>
<g>
</g>
<g>
</g>
</svg>
