<?xml version="1.0" encoding="iso-8859-1"?>
<!-- Generator: Adobe Illustrator 19.0.0, SVG Export Plug-In . SVG Version: 6.00 Build 0)  -->
<svg version="1.1" id="Layer_1" xmlns="http://www.w3.org/2000/svg" xmlns:xlink="http://www.w3.org/1999/xlink" x="0px" y="0px"
	 viewBox="0 0 510.144 510.144" style="enable-background:new 0 0 510.144 510.144;" xml:space="preserve">
<g>
	<g>
		<g>
			<polygon points="178.933,233.472 267.723,233.472 307.104,190.805 202.635,190.805 			"/>
			<polygon points="323.211,204.8 296.757,233.472 326.091,233.472 			"/>
			<polygon points="248.011,254.805 182.88,254.805 212.981,292.757 			"/>
			<polygon points="328.224,254.805 277.067,254.805 226.4,309.675 349.195,464.512 			"/>
			<polygon points="504.075,233.472 506.848,233.472 303.328,9.579 300.917,13.909 340.469,172.117 			"/>
			<polygon points="198.347,308.629 163.979,265.301 109.259,405.141 			"/>
			<polygon points="67.061,190.805 156.213,230.421 178.229,190.805 			"/>
			<path d="M14.517,190.805h-3.051c-3.947,0-7.232-2.219-9.067-5.397l-0.725-0.32l63.36,274.56l0.128-0.32
				c-0.576-3.179,0.107-6.549,2.475-9.088l1.856-2.005l77.675-198.485L14.517,190.805z"/>
			<polygon points="343.776,196.16 347.509,233.472 443.296,233.472 			"/>
			<polygon points="349.621,254.805 373.685,495.424 376.331,498.752 508.469,254.805 			"/>
			<path d="M353.909,504.811L211.744,325.568L87.883,459.755l-3.84,9.792l274.091,40.597l-1.451-1.856
				C355.509,507.328,354.571,506.197,353.909,504.811z"/>
			<polygon points="317.792,169.472 285.749,41.216 214.496,169.472 			"/>
			<path d="M190.069,169.472l88.299-158.955c-0.427-4.416,1.856-8.469,5.781-10.411L284.213,0c-0.341,0.149-0.704,0.213-1.003,0.405
				L12.896,166.741l6.165,2.731H190.069z"/>
		</g>
	</g>
</g>
<g>
</g>
<g>
</g>
<g>
</g>
<g>
</g>
<g>
</g>
<g>
</g>
<g>
</g>
<g>
</g>
<g>
</g>
<g>
</g>
<g>
</g>
<g>
</g>
<g>
</g>
<g>
</g>
<g>
</g>
</svg>
