<?xml version="1.0" encoding="iso-8859-1"?>
<!-- Generator: Adobe Illustrator 19.0.0, SVG Export Plug-In . SVG Version: 6.00 Build 0)  -->
<svg version="1.1" id="Layer_1" xmlns="http://www.w3.org/2000/svg" xmlns:xlink="http://www.w3.org/1999/xlink" x="0px" y="0px"
	 viewBox="0 0 501.803 501.803" style="enable-background:new 0 0 501.803 501.803;" xml:space="preserve">
<g>
	<g>
		<g>
			<path d="M230.933,170.645c1.899-2.987,5.077-5.077,8.875-5.077h22.165c3.84,0,7.061,2.133,8.939,5.184l-20.011-36.395
				L230.933,170.645z"/>
			<path d="M261.995,186.88h-22.165c-5.888,0-10.667-4.779-10.667-10.667c0-1.301,0.32-2.496,0.725-3.648l-78.272,142.336h198.592
				l-23.616-42.923c-0.107,1.472-0.469,2.965-1.237,4.331l-10.816,19.669c-1.941,3.541-5.611,5.525-9.344,5.525
				c-1.749,0-3.499-0.427-5.141-1.323c-5.141-2.837-7.04-9.323-4.203-14.485l10.816-19.669c2.816-5.12,9.195-6.933,14.336-4.267
				l-49.088-89.237c0.427,1.152,0.747,2.368,0.747,3.691C272.661,182.101,267.883,186.88,261.995,186.88z M202.261,301.099
				c-1.621,0.896-3.392,1.323-5.141,1.323c-3.755,0-7.403-1.984-9.344-5.525l-9.749-17.707c-2.859-5.163-0.981-11.648,4.181-14.485
				c5.099-2.795,11.648-0.981,14.485,4.203l9.749,17.707C209.301,291.755,207.424,298.24,202.261,301.099z"/>
			<path d="M142.848,21.952L250.88,99.115l108.032-77.163c1.515-2.837,4.224-4.779,7.488-5.355l0.555-0.363H134.848l0.512,0.363
				C138.624,17.173,141.333,19.115,142.848,21.952z"/>
			<polygon points="378.901,331.797 378.901,477.76 501.803,262.677 			"/>
			<path d="M158.528,243.797l-9.728-17.707c-2.837-5.163-0.939-11.648,4.203-14.485c5.184-2.816,11.627-0.981,14.507,4.203
				l7.104,12.928l23.296-42.347c-0.789,0.192-1.557,0.491-2.411,0.491h-22.165c-5.888,0-10.667-4.779-10.667-10.667
				s4.779-10.667,10.667-10.667h22.165c4.651,0,8.491,3.008,9.963,7.147l31.531-57.323l-97.173-69.397
				c-1.771,1.323-3.861,2.24-6.229,2.24c-5.888,0-10.667-4.779-10.667-10.667v-3.648l-4.011-2.859L0.405,238.4l2.731,1.579
				l6.251-3.648c5.035-2.987,11.605-1.28,14.592,3.84c2.133,3.648,1.771,8-0.448,11.285l105.856,59.541l34.496-62.741
				C161.707,247.36,159.744,246.016,158.528,243.797z M122.901,88.768c0-5.888,4.779-10.667,10.667-10.667
				s10.667,4.779,10.667,10.667v25.6c0,5.888-4.779,10.667-10.667,10.667s-10.667-4.779-10.667-10.667V88.768z M77.589,221.248
				l-19.136,11.157c-1.685,0.981-3.541,1.451-5.376,1.451c-3.669,0-7.232-1.899-9.216-5.291c-2.987-5.099-1.259-11.627,3.84-14.592
				l19.136-11.157c5.035-2.944,11.605-1.259,14.592,3.84C84.416,211.755,82.688,218.283,77.589,221.248z M143.872,194.923
				c-1.621,0.896-3.392,1.323-5.141,1.323c-3.669,0-7.168-1.941-9.152-5.333l-13.717,8c-1.685,0.981-3.541,1.451-5.376,1.451
				c-3.669,0-7.232-1.899-9.216-5.291c-2.965-5.099-1.237-11.627,3.84-14.592l17.792-10.368v-4.544
				c0-5.888,4.779-10.667,10.667-10.667s10.667,4.779,10.667,10.667v7.936l3.819,6.933
				C150.912,185.6,149.035,192.085,143.872,194.923z"/>
			<path d="M477.803,240.149c2.965-5.099,9.493-6.827,14.592-3.84l6.251,3.648l2.752-1.536L382.891,31.061l-3.989,2.859v3.648
				c0,5.888-4.779,10.667-10.667,10.667c-2.389,0-4.459-0.917-6.229-2.24l-97.173,69.419l31.509,57.301
				c1.472-4.139,5.312-7.147,9.963-7.147h22.165c5.888,0,10.667,4.779,10.667,10.667s-4.779,10.667-10.667,10.667h-22.165
				c-0.853,0-1.621-0.299-2.411-0.491l23.595,42.901c0.213-0.896,0.363-1.792,0.811-2.624l10.837-19.669
				c2.859-5.184,9.387-7.019,14.507-4.203c5.163,2.837,7.04,9.323,4.203,14.485l-10.837,19.669
				c-1.963,3.541-5.611,5.525-9.344,5.525c-1.152,0-2.283-0.491-3.413-0.875l38.144,69.355l105.856-59.541
				C476.032,248.149,475.669,243.797,477.803,240.149z M357.568,82.475c0-5.888,4.779-10.667,10.667-10.667
				c5.888,0,10.667,4.779,10.667,10.667v22.464c0,5.888-4.779,10.667-10.667,10.667c-5.888,0-10.667-4.779-10.667-10.667V82.475z
				 M400.533,195.072c-1.984,3.392-5.547,5.291-9.216,5.291c-1.835,0-3.691-0.469-5.376-1.451l-19.136-11.157
				c-2.731-1.6-4.395-4.245-4.971-7.125c-2.517-1.941-4.245-4.864-4.245-8.299v-22.464c0-5.888,4.779-10.667,10.667-10.667
				c5.888,0,10.667,4.779,10.667,10.667v20.245l17.792,10.368C401.771,183.445,403.499,189.973,400.533,195.072z M457.941,228.565
				c-1.984,3.392-5.547,5.291-9.216,5.291c-1.835,0-3.691-0.469-5.376-1.451l-19.136-11.157c-5.077-2.965-6.805-9.493-3.84-14.592
				c2.965-5.099,9.493-6.784,14.592-3.84l19.136,11.157C459.179,216.939,460.907,223.467,457.941,228.565z"/>
			<path d="M282.091,355.051c-1.963,3.541-5.611,5.525-9.344,5.525c-1.749,0-3.52-0.427-5.141-1.323
				c-5.163-2.837-7.04-9.323-4.203-14.485l4.693-8.533h-34.304l1.899,3.456c2.837,5.163,0.939,11.648-4.203,14.485
				c-1.643,0.896-3.392,1.323-5.141,1.323c-3.755,0-7.403-2.005-9.344-5.525l-7.616-13.739h-65.152V458.24
				c2.539,0.491,4.928,1.856,6.592,4.117c3.456,4.757,2.411,11.435-2.347,14.891l-4.245,3.072v5.248h213.333v-5.248l-4.224-3.072
				c-4.779-3.456-5.803-10.133-2.347-14.891c1.643-2.261,4.032-3.627,6.592-4.117V336.235h-65.131L282.091,355.051z
				 M202.965,437.611l-18.176,13.205c-1.899,1.365-4.075,2.048-6.272,2.048c-3.285,0-6.549-1.515-8.619-4.395
				c-3.456-4.757-2.411-11.435,2.347-14.891l18.176-13.205c4.757-3.456,11.435-2.432,14.891,2.347
				C208.768,427.477,207.744,434.155,202.965,437.611z M268.16,402.112c-2.091,2.88-5.333,4.395-8.619,4.395
				c-2.197,0-4.373-0.661-6.272-2.048l-2.347-1.707l-11.605,8.448c-1.899,1.365-4.075,2.048-6.272,2.048
				c-3.285,0-6.549-1.515-8.619-4.395c-3.456-4.779-2.411-11.435,2.347-14.912l10.283-7.488l-0.619-1.109
				c-2.859-5.163-0.981-11.648,4.181-14.485c5.099-2.816,11.648-0.981,14.485,4.203l3.989,7.253l6.72,4.885
				C270.571,390.677,271.616,397.355,268.16,402.112z M305.856,416.32l20.011,14.571c4.757,3.477,5.803,10.133,2.347,14.891
				c-2.091,2.88-5.333,4.395-8.619,4.395c-2.197,0-4.373-0.661-6.272-2.048l-20.011-14.571c-4.779-3.477-5.803-10.133-2.347-14.891
				C294.421,413.867,301.12,412.864,305.856,416.32z"/>
			<polygon points="122.901,477.76 122.901,331.797 0,262.677 			"/>
		</g>
	</g>
</g>
<g>
</g>
<g>
</g>
<g>
</g>
<g>
</g>
<g>
</g>
<g>
</g>
<g>
</g>
<g>
</g>
<g>
</g>
<g>
</g>
<g>
</g>
<g>
</g>
<g>
</g>
<g>
</g>
<g>
</g>
</svg>
