<?xml version="1.0" encoding="iso-8859-1"?>
<!-- Generator: Adobe Illustrator 19.0.0, SVG Export Plug-In . SVG Version: 6.00 Build 0)  -->
<svg version="1.1" id="Layer_1" xmlns="http://www.w3.org/2000/svg" xmlns:xlink="http://www.w3.org/1999/xlink" x="0px" y="0px"
	 viewBox="0 0 510.884 510.884" style="enable-background:new 0 0 510.884 510.884;" xml:space="preserve">
<g>
	<g>
		<g>
			<path d="M509.641,220.622L469.065,98.873l-65.259,65.28l0.128,2.347l7.36,9.365c3.648,4.629,2.837,11.349-1.792,14.976
				c-1.216,0.939-2.667,1.045-4.053,1.408l3.712,63.061c1.813,0.085,3.605,0.469,5.248,1.515c4.949,3.179,6.4,9.792,3.221,14.741
				l-6.891,10.709l3.136,53.269l75.819,53.077l20.416-163.307C510.303,223.737,510.154,222.137,509.641,220.622z M478.218,234.66
				h-10.667c-5.888,0-10.667-4.779-10.667-10.667c0,5.888-4.779,10.667-10.667,10.667h-4.843l-2.624,4.075
				c-2.048,3.157-5.461,4.885-8.981,4.885c-1.984,0-3.989-0.555-5.76-1.707c-4.949-3.179-6.379-9.771-3.2-14.741l1.664-2.581
				l-1.899-2.411c-3.648-4.629-2.837-11.328,1.792-14.976c4.651-3.627,11.328-2.837,14.976,1.792l3.392,4.309h5.483
				c5.888,0,10.667,4.779,10.667,10.667c0-5.888,4.779-10.667,10.667-10.667h10.667c5.888,0.021,10.667,4.8,10.667,10.688
				S484.105,234.66,478.218,234.66z"/>
			<path d="M161.482,342.393l-0.448-0.107l-3.968,3.413c-2.005,1.728-4.48,2.581-6.933,2.581c-3.008,0-5.995-1.259-8.085-3.733
				c-3.84-4.459-3.328-11.2,1.152-15.04l4.075-3.499l-0.107-1.856l-36.8-46.827H1.375L52.17,419.577
				c0.811,2.283,2.389,4.224,4.437,5.504L188.66,506.34l32.171-88.405L161.482,342.393z M98.591,395.812l-8.085,6.933
				c-2.027,1.728-4.501,2.581-6.955,2.581c-3.008,0-5.995-1.259-8.085-3.733c-3.84-4.459-3.328-11.2,1.152-15.04l8.085-6.933
				c4.459-3.819,11.221-3.328,15.04,1.152C103.583,385.252,103.071,391.993,98.591,395.812z M133.684,365.753l-11.691,10.027
				c-2.005,1.728-4.48,2.56-6.933,2.56c-3.008,0-5.995-1.259-8.107-3.733c-3.84-4.459-3.307-11.2,1.173-15.04l11.691-10.027
				c4.459-3.797,11.179-3.307,15.04,1.173C138.676,355.172,138.164,361.913,133.684,365.753z"/>
			<path d="M140.34,208.377l-0.448-7.765c-0.341-5.867,4.139-10.923,10.027-11.264c0.853-0.043,1.643,0.213,2.453,0.363
				l35.029-54.485c-0.704-0.789-1.6-1.387-2.048-2.389c-2.368-5.397,0.085-11.691,5.483-14.059l8.021-3.499l-44.544-96.491
				L45.3,98.084c-1.984,1.429-3.413,3.52-4.032,5.867L0.692,255.993h109.035L140.34,208.377z M127.946,140.921
				c2.325-5.419,8.619-7.957,13.995-5.611l5.568,2.389l5.547-2.432c5.397-2.389,11.691,0.107,14.037,5.504
				c2.368,5.397-0.107,11.691-5.504,14.037l-2.965,1.301l0.192,3.221c0.341,5.888-4.139,10.923-10.027,11.264
				c-0.213,0-0.427,0.021-0.64,0.021c-5.611,0-10.304-4.373-10.645-10.048l-0.235-4.075l-3.733-1.6
				C128.137,152.612,125.62,146.34,127.946,140.921z M92.49,125.71c-1.728,4.053-5.675,6.464-9.792,6.464
				c-1.408,0-2.837-0.277-4.203-0.875l-9.792-4.203c-5.44-2.283-7.936-8.555-5.611-13.973c2.325-5.44,8.619-7.957,13.995-5.611
				l9.792,4.203C92.298,114.02,94.815,120.292,92.49,125.71z M94.9,126.777c2.325-5.419,8.597-7.936,13.995-5.611l11.008,4.715
				c5.419,2.325,7.936,8.597,5.611,13.995c-1.728,4.053-5.675,6.464-9.792,6.464c-1.408,0-2.837-0.277-4.203-0.875l-11.008-4.715
				C95.092,138.446,92.575,132.174,94.9,126.777z"/>
			<path d="M152.329,230.628c-0.213,0-0.427,0.021-0.64,0.021c-0.107,0-0.171-0.043-0.277-0.064l-22.784,35.456l45.739,58.197
				c1.899,1.237,3.2,3.029,4.011,5.099l57.792,73.557l83.563-36.565c2.133-4.395,6.933-7.019,11.883-5.867l0.981,0.235l3.307-1.451
				l0.448-0.683c2.517-3.904,7.147-5.504,11.413-4.501l44.693-19.563l-2.688-45.781c-2.645-3.413-3.093-8.192-0.704-12.053
				l-6.016-102.229l-1.536-1.941c-1.109-1.408-1.664-3.029-1.963-4.672l-161.109-37.909c-0.064,0.021-0.107,0.085-0.171,0.107
				l-3.072,1.344l-53.163,82.709l0.32,5.291C162.697,225.23,158.217,230.286,152.329,230.628z M357.471,325.71l10.56-16.427
				c3.179-4.949,9.771-6.4,14.741-3.2c4.949,3.221,6.379,9.813,3.2,14.763l-10.56,16.427c-2.027,3.157-5.461,4.885-8.981,4.885
				c-1.984,0-3.968-0.533-5.76-1.707C355.721,337.273,354.292,330.681,357.471,325.71z M258.569,354.254
				c1.344-5.739,7.104-9.237,12.843-7.936l20.075,4.736c5.717,1.365,9.259,7.104,7.915,12.843
				c-1.152,4.907-5.547,8.213-10.368,8.213c-0.811,0-1.643-0.085-2.453-0.277l-20.075-4.736
				C260.767,365.753,257.225,359.993,258.569,354.254z M198.345,340.132c1.344-5.76,7.168-9.259,12.821-7.957l20.075,4.715
				c5.739,1.344,9.301,7.083,7.957,12.821c-1.152,4.907-5.547,8.235-10.368,8.235c-0.811,0-1.643-0.085-2.453-0.277l-20.075-4.715
				C200.564,351.609,197.001,345.849,198.345,340.132z M164.703,259.385l1.173,20.011c0.341,5.867-4.117,10.901-10.005,11.264
				c-0.213,0-0.427,0.021-0.64,0.021c-5.611,0-10.304-4.373-10.645-10.048l-1.173-20.011c-0.341-5.867,4.139-10.923,10.027-11.264
				C159.178,249.209,164.361,253.497,164.703,259.385z"/>
			<path d="M357.044,140.601c-0.512-0.448-1.131-0.704-1.557-1.259l-13.013-16.555c-3.648-4.629-2.837-11.328,1.792-14.976
				c4.651-3.648,11.349-2.837,14.976,1.792l13.013,16.555c3.648,4.629,2.837,11.328-1.792,14.976
				c-1.344,1.045-2.944,1.237-4.501,1.557l23.595,5.547l65.749-65.749L323.807,1.572c-1.899-1.173-4.096-1.664-6.357-1.557
				L173.897,10.276l45.163,97.856L357.044,140.601z M304.18,69.156l3.371-1.472v-3.691c0-5.888,4.779-10.667,10.667-10.667
				c-5.888,0-10.667-4.779-10.667-10.667V31.993c0-5.888,4.779-10.667,10.667-10.667s10.667,4.779,10.667,10.667V42.66
				c0,5.888-4.779,10.667-10.667,10.667c5.888,0,10.667,4.779,10.667,10.667v6.976l4.309,5.483
				c3.648,4.629,2.837,11.328-1.792,14.976c-1.963,1.536-4.288,2.283-6.592,2.283c-3.157,0-6.293-1.387-8.405-4.075l-1.493-1.899
				l-2.219,0.96c-5.397,2.432-11.669-0.107-14.037-5.504C296.287,77.796,298.783,71.524,304.18,69.156z M247.519,93.945l18.88-8.256
				c5.419-2.347,11.691,0.107,14.037,5.504c2.368,5.397-0.085,11.691-5.504,14.037l-18.88,8.256
				c-1.387,0.619-2.837,0.896-4.267,0.896c-4.117,0-8.021-2.389-9.771-6.4C239.647,102.606,242.1,96.313,247.519,93.945z"/>
			<path d="M350.729,376.057l0.896,6.293c0.832,5.824-3.221,11.243-9.045,12.075c-0.512,0.064-1.024,0.107-1.515,0.107
				c-5.227,0-9.792-3.84-10.56-9.152l-0.064-0.448l-89.088,38.976l-31.637,86.976l152.576-20.352
				c1.771-0.235,3.435-0.896,4.864-1.941l111.936-81.408l-76.757-53.696L350.729,376.057z M335.092,417.529l-1.536-10.709
				c-0.832-5.824,3.221-11.243,9.045-12.075c5.781-0.875,11.221,3.221,12.075,9.045l1.536,10.709
				c0.832,5.824-3.221,11.243-9.045,12.075c-0.512,0.064-1.024,0.107-1.515,0.107C340.426,426.681,335.86,422.841,335.092,417.529z
				 M351.732,458.553c-0.512,0.064-1.024,0.107-1.515,0.107c-5.227,0-9.792-3.84-10.56-9.152l-1.515-10.56
				c-0.832-5.824,3.221-11.243,9.045-12.075c5.845-0.896,11.243,3.221,12.075,9.045l1.515,10.56
				C361.609,452.324,357.556,457.721,351.732,458.553z"/>
		</g>
	</g>
</g>
<g>
</g>
<g>
</g>
<g>
</g>
<g>
</g>
<g>
</g>
<g>
</g>
<g>
</g>
<g>
</g>
<g>
</g>
<g>
</g>
<g>
</g>
<g>
</g>
<g>
</g>
<g>
</g>
<g>
</g>
</svg>
