<?xml version="1.0" encoding="iso-8859-1"?>
<!-- Generator: Adobe Illustrator 19.0.0, SVG Export Plug-In . SVG Version: 6.00 Build 0)  -->
<svg version="1.1" id="Layer_1" xmlns="http://www.w3.org/2000/svg" xmlns:xlink="http://www.w3.org/1999/xlink" x="0px" y="0px"
	 viewBox="0 0 512 512" style="enable-background:new 0 0 512 512;" xml:space="preserve">
<g>
	<g>
		<g>
			<path d="M160,213.333c-5.888,0-10.667-4.779-10.667-10.667H0v202.667C0,411.221,4.779,416,10.667,416h330.667v-85.333
				c-5.888,0-10.667-4.779-10.667-10.667s4.779-10.667,10.667-10.667V202.667H170.667C170.667,208.555,165.888,213.333,160,213.333z
				 M149.333,245.333c0-5.888,4.779-10.667,10.667-10.667s10.667,4.779,10.667,10.667v21.333c0,5.888-4.779,10.667-10.667,10.667
				s-10.667-4.779-10.667-10.667V245.333z M46.592,398.507l-9.216,5.376c-1.685,0.981-3.541,1.451-5.355,1.451
				c-3.669,0-7.232-1.899-9.216-5.291c-2.965-5.077-1.259-11.605,3.84-14.592l9.216-5.376c5.099-2.965,11.627-1.259,14.592,3.84
				C53.376,388.992,51.669,395.541,46.592,398.507z M112.341,360.171l-21.909,12.779c-1.685,0.981-3.541,1.451-5.355,1.451
				c-3.669,0-7.232-1.899-9.237-5.291c-2.965-5.099-1.237-11.627,3.84-14.592l21.909-12.779c5.099-2.944,11.627-1.237,14.592,3.84
				C119.125,350.656,117.419,357.205,112.341,360.171z M277.333,309.333h21.333c5.888,0,10.667,4.779,10.667,10.667
				s-4.779,10.667-10.667,10.667h-21.333c-5.888,0-10.667-4.779-10.667-10.667S271.445,309.333,277.333,309.333z M213.333,309.333
				h21.333c5.888,0,10.667,4.779,10.667,10.667s-4.779,10.667-10.667,10.667h-21.333c-5.888,0-10.667-4.779-10.667-10.667
				S207.445,309.333,213.333,309.333z M181.355,320c0,5.888-4.8,10.667-10.688,10.667h-7.787l-6.72,3.925
				c-1.685,0.981-3.541,1.451-5.355,1.451c-3.669,0-7.232-1.899-9.216-5.291c-2.965-5.077-1.259-11.605,3.84-14.592l3.925-2.283
				v-4.544c0-5.888,4.779-10.667,10.667-10.667s10.667,4.779,10.667,10.667C176.576,309.333,181.355,314.112,181.355,320z"/>
			<path d="M362.667,198.229v111.104c5.888,0,10.667,4.779,10.667,10.667s-4.779,10.667-10.667,10.667v80.853l143.957-82.261
				c3.328-1.899,5.376-5.44,5.376-9.259V114.24L362.667,198.229z M426.667,330.667h-21.333c-5.888,0-10.667-4.779-10.667-10.667
				s4.779-10.667,10.667-10.667h21.333c5.888,0,10.667,4.779,10.667,10.667S432.555,330.667,426.667,330.667z M480,330.667h-10.667
				c-5.888,0-10.667-4.779-10.667-10.667s4.779-10.667,10.667-10.667H480c5.888,0,10.667,4.779,10.667,10.667
				S485.888,330.667,480,330.667z"/>
			<path d="M160,96c-1.856,0-3.669,0.491-5.291,1.408L7.829,181.333h141.504c0-5.888,4.779-10.667,10.667-10.667
				s10.667,4.779,10.667,10.667h178.539L500.907,96H160z M170.667,138.667c0,5.888-4.779,10.667-10.667,10.667
				s-10.667-4.779-10.667-10.667V128c0-5.888,4.779-10.667,10.667-10.667s10.667,4.779,10.667,10.667V138.667z"/>
		</g>
	</g>
</g>
<g>
</g>
<g>
</g>
<g>
</g>
<g>
</g>
<g>
</g>
<g>
</g>
<g>
</g>
<g>
</g>
<g>
</g>
<g>
</g>
<g>
</g>
<g>
</g>
<g>
</g>
<g>
</g>
<g>
</g>
</svg>
