<?xml version="1.0" encoding="iso-8859-1"?>
<!-- Generator: Adobe Illustrator 19.0.0, SVG Export Plug-In . SVG Version: 6.00 Build 0)  -->
<svg version="1.1" id="Layer_1" xmlns="http://www.w3.org/2000/svg" xmlns:xlink="http://www.w3.org/1999/xlink" x="0px" y="0px"
	 viewBox="0 0 507.541 507.541" style="enable-background:new 0 0 507.541 507.541;" xml:space="preserve">
<g>
	<g>
		<g>
			<path d="M359.349,122.389c5.824,0.875,9.835,6.315,8.96,12.139c-0.619,4.075-3.456,7.211-7.083,8.469l14.229,24.597l34.667-16
				l-14.4-2.155c-5.803-0.875-9.835-6.293-8.96-12.139s6.379-9.771,12.117-8.96l19.755,2.965c5.803,0.875,9.835,6.315,8.96,12.139
				c0,0.043-0.043,0.085-0.043,0.128l44.395-20.48L289.269,18.709l59.072,102.016L359.349,122.389z"/>
			<path d="M59.979,137.131c4.395-0.725,8.704,1.557,10.88,5.312l61.056,25.429l18.581-32.107c-0.256-0.661-0.597-1.28-0.704-2.027
				c-0.917-5.781,3.072-11.285,8.875-12.203l0.085-0.021l59.584-102.891L30.88,125.739l27.733,11.605L59.979,137.131z
				 M99.445,130.901l19.733-3.115c5.675-1.003,11.264,3.051,12.203,8.875c0.917,5.824-3.072,11.285-8.875,12.203L102.773,152
				c-0.555,0.064-1.131,0.107-1.685,0.107c-5.141,0-9.685-3.755-10.517-9.003C89.653,137.28,93.621,131.84,99.445,130.901z"/>
			<path d="M190.581,127.296c0.917,5.824-3.072,11.285-8.875,12.203l-9.6,1.515l-17.173,29.653h57.323l7.552-13.739
				c2.88-5.184,9.344-7.019,14.507-4.203c5.141,2.837,7.04,9.323,4.203,14.485l-1.899,3.456h34.304l-1.899-3.477
				c-2.837-5.163-0.939-11.648,4.203-14.485c5.184-2.795,11.627-0.96,14.507,4.203l7.552,13.76h57.323l-17.792-30.741
				c-4.864-1.579-8.107-6.315-7.339-11.541c0.043-0.256,0.192-0.448,0.256-0.683L253.792,0c-0.021,0-0.021,0-0.043,0
				l-69.205,119.531C187.595,121.003,190.027,123.733,190.581,127.296z M243.104,53.333c0-5.888,4.779-10.667,10.667-10.667
				c5.888,0,10.667,4.779,10.667,10.667V64c0,5.888-4.779,10.667-10.667,10.667c-5.888,0-10.667-4.779-10.667-10.667V53.333z
				 M217.888,112.213l19.733-3.115c1.92-0.341,3.776,0.064,5.525,0.768v-3.2c0-5.888,4.779-10.667,10.667-10.667
				c5.888,0,10.667,4.779,10.667,10.667v7.936l3.819,6.933c0.043,0.064,0.043,0.149,0.064,0.235
				c-0.043-0.747-0.235-1.472-0.107-2.261c0.832-5.845,6.336-9.835,12.075-8.981l19.755,2.965c5.803,0.875,9.835,6.293,8.96,12.139
				c-0.789,5.291-5.333,9.088-10.517,9.088c-0.533,0-1.067-0.043-1.6-0.107l-19.755-2.965c-3.477-0.533-6.144-2.773-7.68-5.653
				c0.256,3.989-1.685,7.979-5.419,10.048c-1.621,0.896-3.392,1.323-5.141,1.323c-1.792,0-3.563-0.448-5.141-1.323
				c-3.115,1.728-6.997,1.813-10.283,0c-2.283-1.259-3.797-3.285-4.672-5.525l-17.621,2.773c-0.555,0.085-1.131,0.128-1.685,0.128
				c-5.141,0-9.685-3.755-10.517-9.003C208.096,118.592,212.085,113.131,217.888,112.213z"/>
			<path d="M328.267,402.453l-14.869,18.944c-2.112,2.667-5.248,4.075-8.405,4.075c-2.304,0-4.629-0.747-6.592-2.283
				c-4.651-3.627-5.44-10.347-1.813-14.976l3.84-4.885l-36.011,1.557v57.493c0.832,0.363,1.749,0.277,2.496,0.853
				c4.651,3.627,5.44,10.347,1.813,14.976l-4.309,5.504v23.829l194.411-111.104l-130.368,5.653
				C328.373,402.219,328.373,402.347,328.267,402.453z"/>
			<path d="M407.051,285.611c-1.92,3.605-5.632,5.675-9.429,5.675c-1.685,0-3.392-0.405-4.971-1.237
				c-5.205-2.752-7.211-9.216-4.459-14.421l10.731-20.288c0.917-1.728,2.304-2.923,3.84-3.883l-31.019-49.109l-30.933,56.235
				c2.155,0.896,4.096,2.347,5.312,4.544l9.728,17.707c2.837,5.163,0.939,11.648-4.203,14.485c-1.643,0.896-3.392,1.323-5.141,1.323
				c-3.755,0-7.403-2.005-9.344-5.525l-7.104-12.928l-23.04,41.835h14.635c5.888,0,10.667,4.779,10.667,10.667
				s-4.779,10.667-10.667,10.667h-19.392c-2.219,0-4.16-0.832-5.867-2.005l-24.128,43.883l208.021-9.088l-65.344-103.445
				L407.051,285.611z M390.731,339.072c-2.304,5.397-8.597,7.957-13.995,5.611l-2.283-0.96l-1.515,1.941
				c-2.112,2.688-5.248,4.075-8.405,4.075c-2.304,0-4.629-0.747-6.592-2.283c-2.709-2.112-3.925-5.269-3.904-8.469
				c-2.517-1.941-4.267-4.864-4.267-8.299c0-4.011,2.219-7.531,5.525-9.344c0-3.755,2.005-7.403,5.525-9.344
				c3.264-1.813,7.04-1.515,10.133,0.149c3.051-1.728,6.805-2.091,10.155-0.32c4.971,2.645,6.869,8.619,4.629,13.696
				C390.645,328.064,392.928,333.888,390.731,339.072z M426.144,354.283c2.304-5.397,8.619-7.979,13.995-5.611l9.813,4.203
				c5.419,2.304,7.936,8.576,5.632,13.995c-1.728,4.032-5.675,6.464-9.813,6.464c-1.387,0-2.837-0.277-4.181-0.875l-9.813-4.203
				C426.357,365.952,423.84,359.68,426.144,354.283z"/>
			<path d="M476.533,144.448c0.021,0.043,0.064,0.064,0.085,0.107c1.557,3.093,1.515,6.741-0.107,9.792l-4.992,9.408
				c-1.92,3.605-5.611,5.675-9.408,5.675c-1.685,0-3.392-0.405-4.992-1.237c-4.096-2.197-6.208-6.677-5.547-11.029
				c-0.363-0.192-0.491-0.619-0.832-0.832l-64.107,29.589l101.803,161.216V138.944L476.533,144.448z M450.016,204.395
				l-10.752,20.309c-1.899,3.605-5.611,5.675-9.408,5.675c-1.685,0-3.392-0.405-4.992-1.237c-5.184-2.752-7.189-9.216-4.416-14.421
				l10.752-20.309c2.752-5.227,9.195-7.189,14.421-4.437C450.784,192.725,452.789,199.168,450.016,204.395z"/>
			<path d="M65.227,163.221c-1.003,2.283-2.603,4.288-5.035,5.44c-1.472,0.683-3.029,1.003-4.544,1.003
				c-4.011,0-7.829-2.261-9.643-6.123l-4.544-9.643c-0.085-0.192-0.043-0.427-0.128-0.619L19.104,144v203.136l101.568-160.811
				L65.227,163.221z M88.779,229.397c-1.472,0.683-3.029,1.003-4.544,1.003c-4.011,0-7.829-2.261-9.643-6.123l-9.515-20.245
				c-2.517-5.333-0.235-11.691,5.099-14.187c5.355-2.496,11.691-0.235,14.187,5.12l9.515,20.245
				C96.395,220.523,94.112,226.901,88.779,229.397z"/>
			<path d="M154.464,192l99.307,180.523L353.056,192H154.464z M209.312,220.288l-9.749,17.707c-1.941,3.541-5.589,5.525-9.344,5.525
				c-1.749,0-3.52-0.427-5.141-1.323c-5.163-2.837-7.04-9.344-4.181-14.485l9.749-17.707c2.837-5.184,9.344-7.04,14.485-4.203
				C210.293,208.64,212.171,215.147,209.312,220.288z M263.477,341.333h-19.392c-5.888,0-10.667-4.779-10.667-10.667
				S238.197,320,244.085,320h19.392c5.888,0,10.667,4.779,10.667,10.667S269.365,341.333,263.477,341.333z M322.464,242.219
				c-1.621,0.896-3.392,1.323-5.141,1.323c-3.755,0-7.403-1.984-9.344-5.525l-9.749-17.707c-2.859-5.163-0.981-11.648,4.181-14.485
				c5.099-2.816,11.627-0.981,14.485,4.203l9.749,17.707C329.504,232.896,327.627,239.381,322.464,242.219z"/>
			<path d="M211.168,339.328c-1.707,1.152-3.648,2.005-5.867,2.005h-19.392c-5.888,0-10.667-4.779-10.667-10.667
				S180.021,320,185.909,320h14.635l-23.019-41.856l-7.104,12.928c-1.963,3.541-5.611,5.525-9.344,5.525
				c-1.749,0-3.499-0.427-5.141-1.323c-5.141-2.837-7.04-9.323-4.203-14.485l9.728-17.707c1.216-2.197,3.157-3.648,5.312-4.544
				l-30.933-56.235l-30.123,47.701c3.072,0.725,5.824,2.624,7.253,5.696l9.536,20.267c2.517,5.333,0.235,11.669-5.099,14.187
				c-1.451,0.704-3.029,1.024-4.544,1.024c-4.011,0-7.829-2.261-9.643-6.123l-8.384-17.813l-67.52,106.901l208,9.045
				L211.168,339.328z M74.955,359.339l-10.24,2.923c-0.981,0.299-1.984,0.405-2.944,0.405c-4.651,0-8.917-3.051-10.24-7.744
				c-1.621-5.675,1.664-11.563,7.317-13.184l10.24-2.923c5.696-1.6,11.584,1.664,13.184,7.339
				C83.893,351.808,80.608,357.717,74.955,359.339z M153.504,338.965c0.021,3.179-1.195,6.336-3.904,8.469
				c-1.963,1.536-4.267,2.283-6.592,2.283c-3.136,0-6.293-1.387-8.405-4.075l-2.155-2.731l-3.349,0.96
				c-5.76,1.579-11.584-1.685-13.184-7.339c-1.472-5.141,1.216-10.325,5.952-12.48c-1.493-4.971,0.64-10.411,5.483-12.693
				c3.285-1.515,6.805-1.088,9.707,0.533c3.008-1.451,6.571-1.621,9.664,0.085c3.52,1.941,5.525,5.589,5.525,9.344
				c3.285,1.813,5.525,5.333,5.525,9.344C157.771,334.123,156.043,337.024,153.504,338.965z"/>
			<path d="M210.933,408.213c3.627,4.629,2.837,11.349-1.813,14.976c-1.963,1.536-4.267,2.283-6.592,2.283
				c-3.136,0-6.293-1.387-8.405-4.075l-14.869-18.944c-0.085-0.128-0.107-0.277-0.192-0.384l-130.411-5.653L243.083,507.52v-23.808
				h0.021l-4.309-5.504c-3.627-4.629-2.837-11.328,1.813-14.976c0.747-0.576,1.664-0.512,2.496-0.853v-57.536l-36.032-1.557
				L210.933,408.213z"/>
		</g>
	</g>
</g>
<g>
</g>
<g>
</g>
<g>
</g>
<g>
</g>
<g>
</g>
<g>
</g>
<g>
</g>
<g>
</g>
<g>
</g>
<g>
</g>
<g>
</g>
<g>
</g>
<g>
</g>
<g>
</g>
<g>
</g>
</svg>
