<?xml version="1.0" encoding="iso-8859-1"?>
<!-- Generator: Adobe Illustrator 19.0.0, SVG Export Plug-In . SVG Version: 6.00 Build 0)  -->
<svg version="1.1" id="Layer_1" xmlns="http://www.w3.org/2000/svg" xmlns:xlink="http://www.w3.org/1999/xlink" x="0px" y="0px"
	 viewBox="0 0 501.013 501.013" style="enable-background:new 0 0 501.013 501.013;" xml:space="preserve">
<g>
	<g>
		<g>
			<path d="M121.984,272.832h86.037c-1.131-5.696,2.475-11.264,8.149-12.523c5.803-1.301,11.435,2.411,12.693,8.149l0.939,4.373
				h70.208l-58.24-214.549c-1.344,0.597-2.773,1.024-4.309,1.024c-0.619,0-1.237-0.043-1.856-0.171
				c-5.803-1.024-9.685-6.549-8.64-12.352l1.856-10.496c0.555-3.179,2.496-5.675,5.035-7.211l-6.357-23.445l-142.528,267.2H121.984
				L121.984,272.832z M252.651,208.832h17.323c5.888,0,10.667,4.779,10.667,10.667s-4.779,10.667-10.667,10.667h-17.323
				c-5.888,0-10.667-4.779-10.667-10.667S246.763,208.832,252.651,208.832z M216.341,106.901l3.541-20.011
				c1.003-5.803,6.571-9.685,12.352-8.64c5.803,1.024,9.685,6.549,8.64,12.352l-3.541,20.032c-0.896,5.184-5.397,8.811-10.496,8.811
				c-0.619,0-1.237-0.043-1.856-0.171C219.179,118.229,215.296,112.725,216.341,106.901z M205.739,167.061l3.541-20.053
				c1.024-5.803,6.549-9.749,12.352-8.64c5.803,1.024,9.685,6.549,8.64,12.352l-3.541,20.032c-0.896,5.184-5.397,8.811-10.496,8.811
				c-0.619,0-1.237-0.043-1.856-0.171C208.576,178.389,204.693,172.843,205.739,167.061z M193.003,214.72l4.736-2.368l0.917-5.205
				c1.024-5.803,6.549-9.707,12.352-8.64c5.184,0.896,8.832,5.419,8.811,10.496c5.013,0.896,8.811,5.248,8.811,10.517
				c0,5.163-3.733,9.259-8.597,10.261c0.064,4.971-3.157,9.493-8.192,10.603c-0.768,0.171-1.536,0.235-2.283,0.235
				c-4.032,0-7.744-2.304-9.536-5.888c-4.672,1.024-9.579-1.216-11.819-5.653C185.6,223.765,187.733,217.344,193.003,214.72z
				 M153.259,234.603l13.248-6.635c5.248-2.624,11.669-0.491,14.315,4.779s0.491,11.669-4.779,14.315l-13.248,6.635
				c-1.536,0.768-3.157,1.131-4.757,1.131c-3.925,0-7.68-2.155-9.557-5.888C145.856,243.648,147.989,237.227,153.259,234.603z
				 M112.427,266.944c-2.645-5.269-0.491-11.669,4.779-14.315l9.536-4.779c5.291-2.624,11.669-0.512,14.315,4.779
				c2.645,5.269,0.491,11.669-4.779,14.315l-9.536,4.779c-1.515,0.747-3.136,1.109-4.757,1.109
				C118.059,272.832,114.304,270.656,112.427,266.944z"/>
			<path d="M232.96,294.165c-1.088,3.584-3.883,6.549-7.787,7.403c-0.768,0.171-1.536,0.235-2.283,0.235
				c-4.629,0-8.747-3.093-10.112-7.637H86.421l174.464,206.848l5.269-27.179c-1.003,0.619-2.027,1.152-3.243,1.429
				c-0.768,0.171-1.536,0.235-2.283,0.235c-4.907,0-9.323-3.413-10.411-8.405l-2.261-10.432c-1.259-5.76,2.411-11.435,8.149-12.693
				c5.717-1.301,11.435,2.411,12.693,8.149l0.832,3.797l31.424-161.749H232.96z M225.771,354.603l-4.437-20.416
				c-1.259-5.76,2.411-11.435,8.171-12.693c5.696-1.237,11.435,2.389,12.693,8.171l4.437,20.416
				c1.259,5.76-2.411,11.435-8.171,12.693c-0.768,0.171-1.515,0.235-2.261,0.235C231.296,363.051,226.88,359.616,225.771,354.603z
				 M251.776,424c-0.768,0.171-1.536,0.235-2.283,0.235c-4.885,0-9.301-3.413-10.411-8.384l-4.437-20.416
				c-1.259-5.76,2.411-11.435,8.149-12.693c5.824-1.28,11.435,2.411,12.693,8.149l4.437,20.416
				C261.184,417.088,257.515,422.763,251.776,424z"/>
			<path d="M321.984,208.832c5.888,0,10.667,4.779,10.667,10.667s-4.779,10.667-10.667,10.667h-11.435l9.92,36.565l93.44-59.413
				L248.064,0l56.704,208.832H321.984z M356.651,208.832h10.667c5.888,0,10.667,4.779,10.667,10.667s-4.779,10.667-10.667,10.667
				h-10.667c-5.888,0-10.667-4.779-10.667-10.667S350.763,208.832,356.651,208.832z"/>
			<polygon points="323.584,290.005 283.52,496.256 416.043,231.232 			"/>
		</g>
	</g>
</g>
<g>
</g>
<g>
</g>
<g>
</g>
<g>
</g>
<g>
</g>
<g>
</g>
<g>
</g>
<g>
</g>
<g>
</g>
<g>
</g>
<g>
</g>
<g>
</g>
<g>
</g>
<g>
</g>
<g>
</g>
</svg>
