<?xml version="1.0" encoding="iso-8859-1"?>
<!-- Generator: Adobe Illustrator 19.0.0, SVG Export Plug-In . SVG Version: 6.00 Build 0)  -->
<svg version="1.1" id="Layer_1" xmlns="http://www.w3.org/2000/svg" xmlns:xlink="http://www.w3.org/1999/xlink" x="0px" y="0px"
	 viewBox="0 0 493.824 493.824" style="enable-background:new 0 0 493.824 493.824;" xml:space="preserve">
<g>
	<g>
		<g>
			<polygon points="226.859,268.821 294.912,268.821 283.712,226.155 216.896,226.155 			"/>
			<polygon points="278.123,204.821 238.891,55.296 215.893,204.821 			"/>
			<polygon points="370.219,226.155 305.771,226.155 315.264,262.4 			"/>
			<polygon points="193.707,208.747 225.28,3.413 224.427,0.149 81.109,268.821 86.891,268.821 			"/>
			<polygon points="402.56,204.821 408.256,201.067 247.403,0 247.04,2.304 300.16,204.821 			"/>
			<polygon points="408.981,226.155 318.315,285.952 277.632,486.421 279.211,493.163 412.715,226.155 			"/>
			<polygon points="204.949,268.821 196.288,231.744 130.389,268.821 			"/>
			<polygon points="231.851,290.155 265.984,436.48 295.68,290.155 			"/>
			<polygon points="92.459,290.155 85.76,293.931 254.357,493.824 255.787,486.741 209.92,290.155 			"/>
		</g>
	</g>
</g>
<g>
</g>
<g>
</g>
<g>
</g>
<g>
</g>
<g>
</g>
<g>
</g>
<g>
</g>
<g>
</g>
<g>
</g>
<g>
</g>
<g>
</g>
<g>
</g>
<g>
</g>
<g>
</g>
<g>
</g>
</svg>
