<?xml version="1.0" encoding="iso-8859-1"?>
<!-- Generator: Adobe Illustrator 19.0.0, SVG Export Plug-In . SVG Version: 6.00 Build 0)  -->
<svg version="1.1" id="Layer_1" xmlns="http://www.w3.org/2000/svg" xmlns:xlink="http://www.w3.org/1999/xlink" x="0px" y="0px"
	 viewBox="0 0 511.991 511.991" style="enable-background:new 0 0 511.991 511.991;" xml:space="preserve">
<g>
	<g>
		<g>
			<path d="M298.664,359.697h-21.333c-5.888,0-10.667-4.779-10.667-10.667c0-5.888,4.779-10.667,10.667-10.667h21.333
				c1.557,0,3.008,0.363,4.331,0.96L228.52,27.836c-4.757-1.899-7.68-6.827-6.549-11.989l1.749-8.021l-0.277-1.216L0.958,493.948
				c-1.493,3.307-1.237,7.147,0.747,10.197c1.963,3.051,5.333,4.885,8.96,4.885h332.907L306.878,355.58
				C304.915,358.033,302.035,359.697,298.664,359.697z M206.952,84.518l5.013-22.891c1.237-5.76,6.955-9.429,12.693-8.128
				c5.76,1.259,9.387,6.933,8.128,12.693l-5.013,22.891c-1.088,4.992-5.504,8.384-10.411,8.384c-0.768,0-1.515-0.085-2.283-0.256
				C209.32,95.953,205.694,90.278,206.952,84.518z M191.934,153.19l5.013-22.891c1.259-5.781,6.912-9.408,12.693-8.128
				c5.76,1.259,9.387,6.933,8.128,12.693l-5.013,22.891c-1.088,4.992-5.504,8.384-10.411,8.384c-0.768,0-1.515-0.085-2.283-0.256
				C194.302,164.625,190.654,158.95,191.934,153.19z M161.875,290.556l4.992-22.891c1.259-5.76,6.976-9.451,12.693-8.149
				c5.76,1.259,9.408,6.933,8.149,12.693l-4.992,22.891c-1.088,4.992-5.504,8.405-10.411,8.405c-0.747,0-1.515-0.085-2.283-0.256
				C164.264,301.99,160.616,296.316,161.875,290.556z M47.08,477.03l-7.552,7.552c-2.091,2.091-4.821,3.115-7.552,3.115
				c-2.731,0-5.461-1.045-7.552-3.115c-4.16-4.16-4.16-10.923,0-15.083l7.552-7.552c4.16-4.16,10.923-4.16,15.083,0
				S51.24,472.87,47.08,477.03z M97.427,426.684l-16.789,16.789c-2.091,2.091-4.821,3.115-7.552,3.115s-5.461-1.045-7.552-3.115
				c-4.16-4.16-4.16-10.923,0-15.083l16.789-16.789c4.16-4.16,10.923-4.16,15.083,0C101.566,415.761,101.587,422.524,97.427,426.684
				z M147.774,376.337l-16.789,16.789c-2.091,2.091-4.821,3.115-7.552,3.115c-2.731,0-5.461-1.045-7.552-3.115
				c-4.16-4.16-4.16-10.923,0-15.083l16.789-16.789c4.16-4.16,10.923-4.16,15.083,0
				C151.912,365.414,151.934,372.177,147.774,376.337z M188.883,335.249l-7.552,7.552c-0.448,0.448-1.024,0.661-1.536,1.024
				c0.896,1.557,1.536,3.285,1.536,5.227c0,5.888-4.779,10.667-10.667,10.667h-10.667c-3.221,0-6.272-1.451-8.32-3.989
				c-2.027-2.517-2.795-5.803-2.112-8.96l2.283-10.411c1.259-5.781,6.891-9.429,12.693-8.128c0.384,0.085,0.704,0.32,1.067,0.427
				c0.235-0.299,0.341-0.661,0.619-0.939l7.552-7.552c4.16-4.16,10.923-4.16,15.083,0
				C193.022,324.326,193.043,331.068,188.883,335.249z M187.326,234.812c-0.768,0-1.515-0.085-2.283-0.256
				c-5.76-1.259-9.387-6.933-8.128-12.693l5.013-22.891c1.259-5.781,6.955-9.387,12.693-8.128c5.76,1.259,9.387,6.933,8.128,12.693
				l-5.013,22.891C196.648,231.42,192.232,234.812,187.326,234.812z M234.664,359.697h-21.333c-5.888,0-10.667-4.779-10.667-10.667
				c0-5.888,4.779-10.667,10.667-10.667h21.333c5.888,0,10.667,4.779,10.667,10.667
				C245.331,354.918,240.552,359.697,234.664,359.697z"/>
			<path d="M509.736,342.46L244.499,2.961L363.752,501.67l145.109-145.109C512.68,352.764,513.043,346.705,509.736,342.46z
				 M362.664,359.697h-21.333c-5.888,0-10.667-4.779-10.667-10.667c0-5.888,4.779-10.667,10.667-10.667h21.333
				c5.888,0,10.667,4.779,10.667,10.667C373.331,354.918,368.552,359.697,362.664,359.697z M426.664,359.697h-21.333
				c-5.888,0-10.667-4.779-10.667-10.667c0-5.888,4.779-10.667,10.667-10.667h21.333c5.888,0,10.667,4.779,10.667,10.667
				C437.331,354.918,432.552,359.697,426.664,359.697z M479.998,359.697h-10.667c-5.888,0-10.667-4.779-10.667-10.667
				c0-5.888,4.779-10.667,10.667-10.667h10.667c5.888,0,10.667,4.779,10.667,10.667
				C490.664,354.918,485.886,359.697,479.998,359.697z"/>
		</g>
	</g>
</g>
<g>
</g>
<g>
</g>
<g>
</g>
<g>
</g>
<g>
</g>
<g>
</g>
<g>
</g>
<g>
</g>
<g>
</g>
<g>
</g>
<g>
</g>
<g>
</g>
<g>
</g>
<g>
</g>
<g>
</g>
</svg>
