<?xml version="1.0" encoding="iso-8859-1"?>
<!-- Generator: Adobe Illustrator 19.0.0, SVG Export Plug-In . SVG Version: 6.00 Build 0)  -->
<svg version="1.1" id="Layer_1" xmlns="http://www.w3.org/2000/svg" xmlns:xlink="http://www.w3.org/1999/xlink" x="0px" y="0px"
	 viewBox="0 0 512 512" style="enable-background:new 0 0 512 512;" xml:space="preserve">
<g>
	<g>
		<g>
			<path d="M256,170.667c16.64,0,37.76,0.363,60.8,1.515C309.611,79.275,289.984,0,256,0s-53.611,79.275-60.8,172.181
				C218.24,171.029,239.36,170.667,256,170.667z"/>
			<path d="M193.771,193.771C192.619,214.336,192,235.285,192,256s0.619,41.664,1.771,62.229C214.336,319.381,235.285,320,256,320
				s41.664-0.619,62.229-1.771C319.381,297.664,320,276.715,320,256s-0.619-41.664-1.771-62.229
				C297.664,192.619,276.715,192,256,192S214.336,192.619,193.771,193.771z"/>
			<path d="M508.395,214.912C490.816,106.688,405.333,21.205,297.109,3.627c25.963,36.523,37.013,107.2,41.408,169.856
				C401.173,177.877,471.851,188.928,508.395,214.912z"/>
			<path d="M512,256c0-33.963-79.275-53.589-172.181-60.8c1.152,23.019,1.515,44.16,1.515,60.8s-0.363,37.76-1.515,60.8
				C432.725,309.589,512,289.963,512,256z"/>
			<path d="M3.605,297.088c17.579,108.224,103.061,193.707,211.285,211.285c-25.963-36.523-37.013-107.2-41.408-169.856
				C110.827,334.123,40.149,323.072,3.605,297.088z"/>
			<path d="M297.088,508.395c108.245-17.579,193.707-103.061,211.285-211.285c-36.523,25.963-107.2,37.013-169.856,41.408
				C334.123,401.173,323.072,471.851,297.088,508.395z"/>
			<path d="M256,341.333c-16.64,0-37.76-0.363-60.8-1.515C202.389,432.725,222.016,512,256,512s53.611-79.275,60.8-172.181
				C293.76,340.971,272.64,341.333,256,341.333z"/>
			<path d="M214.912,3.605C106.667,21.184,21.205,106.667,3.627,214.891c36.523-25.963,107.2-37.013,169.856-41.408
				C177.877,110.827,188.928,40.149,214.912,3.605z"/>
			<path d="M172.181,316.8c-1.152-23.04-1.515-44.16-1.515-60.8s0.363-37.76,1.515-60.8C79.275,202.411,0,222.037,0,256
				S79.275,309.589,172.181,316.8z"/>
		</g>
	</g>
</g>
<g>
</g>
<g>
</g>
<g>
</g>
<g>
</g>
<g>
</g>
<g>
</g>
<g>
</g>
<g>
</g>
<g>
</g>
<g>
</g>
<g>
</g>
<g>
</g>
<g>
</g>
<g>
</g>
<g>
</g>
</svg>
