<?xml version="1.0" encoding="iso-8859-1"?>
<!-- Generator: Adobe Illustrator 19.0.0, SVG Export Plug-In . SVG Version: 6.00 Build 0)  -->
<svg version="1.1" id="Layer_1" xmlns="http://www.w3.org/2000/svg" xmlns:xlink="http://www.w3.org/1999/xlink" x="0px" y="0px"
	 viewBox="0 0 512 512" style="enable-background:new 0 0 512 512;" xml:space="preserve">
<g>
	<g>
		<g>
			<path d="M315.797,360.171c-0.448,5.568-5.12,9.771-10.603,9.771c-0.32,0-0.597,0-0.917-0.043
				c-5.845-0.491-10.219-5.632-9.728-11.52c0.491-5.781,0.917-11.712,1.323-17.707c-14.805,0.469-28.437,0.661-39.872,0.661
				c-16.64,0-37.76-0.363-60.8-1.515C202.389,432.725,222.016,512,256,512c0.192,0,1.024-0.277,2.368-1.493
				c4.288-3.861,10.816-3.541,14.805,0.619c119.36-7.979,216.341-97.941,235.2-214.037c-40.725,28.971-123.968,39.339-191.04,42.709
				C316.885,346.709,316.352,353.515,315.797,360.171z M300.331,464.149c-1.813,7.467-3.733,14.379-5.717,20.672
				c-1.429,4.544-5.632,7.467-10.176,7.467c-1.067,0-2.155-0.149-3.2-0.491c-5.632-1.771-8.725-7.765-6.955-13.376
				c1.856-5.867,3.605-12.309,5.291-19.264c1.387-5.739,7.168-9.259,12.885-7.851C298.197,452.672,301.717,458.432,300.331,464.149z
				 M311.445,401.856c-0.96,7.168-1.963,14.123-3.008,20.8c-0.832,5.248-5.376,9.003-10.517,9.003c-0.555,0-1.131-0.043-1.685-0.128
				c-5.803-0.917-9.792-6.379-8.875-12.203c1.045-6.507,2.005-13.248,2.901-20.224c0.768-5.845,5.909-9.92,11.968-9.216
				C308.053,390.656,312.192,396.011,311.445,401.856z"/>
			<path d="M193.771,318.229C214.336,319.381,235.285,320,256,320c123.285,0,256-20.032,256-64
				C512,120.64,406.336,9.771,273.173,0.875c-2.091,2.176-4.864,3.349-7.68,3.349c-2.539,0-5.077-0.896-7.125-2.731
				C257.024,0.277,256.192,0,256,0c-43.989,0-64,132.693-64,256C192,276.715,192.619,297.664,193.771,318.229z M459.307,219.584
				c1.344-5.739,7.019-9.387,12.821-7.979c7.765,1.792,14.955,3.712,21.483,5.696c5.632,1.707,8.811,7.659,7.104,13.312
				c-1.387,4.587-5.632,7.552-10.219,7.552c-1.024,0-2.069-0.149-3.115-0.448c-6.101-1.856-12.843-3.627-20.096-5.333
				C461.568,231.061,457.984,225.323,459.307,219.584z M319.36,297.536c-0.192,5.781-4.907,10.347-10.667,10.347h-0.341
				c-5.867-0.192-10.496-5.099-10.325-10.987c0.213-6.763,0.384-13.632,0.469-20.544c0.085-5.845,4.864-10.517,10.667-10.517h0.171
				c5.867,0.085,10.581,4.928,10.496,10.816C319.723,283.712,319.552,290.667,319.36,297.536z M395.541,209.813
				c0.704-5.824,6.08-10.069,11.883-9.259c7.467,0.917,14.656,1.92,21.632,2.987c5.803,0.875,9.835,6.315,8.939,12.139
				c-0.789,5.291-5.355,9.067-10.517,9.067c-0.533,0-1.088-0.043-1.621-0.128c-6.763-1.024-13.781-1.984-21.035-2.901
				C398.976,220.992,394.816,215.659,395.541,209.813z M331.2,204.629c0.363-5.888,4.885-10.347,11.307-10.005
				c7.36,0.448,14.592,0.981,21.653,1.536c5.867,0.469,10.24,5.611,9.771,11.499c-0.448,5.589-5.099,9.813-10.603,9.813
				c-0.299,0-0.576,0-0.875-0.021c-6.933-0.555-14.037-1.067-21.269-1.515C335.317,215.552,330.837,210.496,331.2,204.629z
				 M315.776,151.445c0.555,6.805,1.109,13.781,1.557,20.864c0.384,5.888-4.053,10.965-9.963,11.349
				c-0.235,0-0.448,0.021-0.704,0.021c-5.568,0-10.24-4.331-10.624-9.963c-0.448-6.955-0.96-13.781-1.515-20.48
				c-0.491-5.867,3.883-11.029,9.728-11.52C310.037,140.971,315.264,145.536,315.776,151.445z M308.373,88.939
				c1.045,6.677,2.048,13.632,2.987,20.8c0.747,5.845-3.371,11.2-9.216,11.968c-0.469,0.043-0.939,0.085-1.387,0.085
				c-5.269,0-9.856-3.925-10.56-9.301c-0.896-6.976-1.856-13.717-2.901-20.224c-0.917-5.824,3.072-11.285,8.875-12.203
				C301.888,79.083,307.456,83.115,308.373,88.939z M281.088,19.84c5.696-1.792,11.627,1.323,13.419,6.933
				c2.005,6.293,3.947,13.227,5.739,20.715c1.365,5.739-2.176,11.499-7.893,12.864c-0.832,0.192-1.664,0.299-2.475,0.299
				c-4.843,0-9.216-3.285-10.368-8.171c-1.664-6.955-3.435-13.355-5.312-19.2C272.384,27.627,275.477,21.632,281.088,19.84z
				 M277.504,192.171c7.317,0.107,14.549,0.256,21.696,0.469c5.867,0.192,10.496,5.099,10.325,11.008
				c0,0.085-0.043,0.128-0.043,0.213c5.376,0.405,9.728,4.672,9.899,10.197c0.171,6.848,0.341,13.803,0.469,20.843
				c0.107,5.888-4.587,10.752-10.475,10.859h-0.192c-5.803,0-10.56-4.651-10.667-10.475c-0.128-6.933-0.299-13.803-0.491-20.587
				c0-0.256,0.107-0.469,0.128-0.725c-6.912-0.213-13.888-0.363-20.949-0.469c-5.888-0.085-10.603-4.928-10.517-10.816
				C266.773,196.821,271.808,192.363,277.504,192.171z M212.437,192.619c7.125-0.213,14.357-0.384,21.675-0.469
				c5.717,0.427,10.731,4.629,10.816,10.517s-4.608,10.731-10.517,10.816c-7.189,0.107-14.293,0.277-21.333,0.469h-0.32
				c-5.76,0-10.496-4.565-10.667-10.347C201.92,197.717,206.549,192.811,212.437,192.619z"/>
			<path d="M3.605,297.088c17.579,108.224,103.061,193.707,211.285,211.285c-25.963-36.523-37.013-107.2-41.408-169.856
				C110.827,334.123,40.149,323.072,3.605,297.088z"/>
			<path d="M172.181,316.8c-1.152-23.04-1.515-44.16-1.515-60.8c0-11.541,0.192-25.323,0.661-40.299
				c-0.299,0.043-0.555,0.213-0.853,0.235c-7.211,0.448-14.293,0.96-21.248,1.536c-0.32,0.021-0.597,0.021-0.896,0.021
				c-5.483,0-10.155-4.224-10.603-9.792c-0.469-5.867,3.904-11.029,9.749-11.499c7.083-0.576,14.336-1.088,21.675-1.557
				c1.088-0.043,2.048,0.213,3.051,0.427c3.328-67.136,13.696-150.635,42.731-191.445C93.248,23.381,0,128.853,0,256
				C0,289.963,79.275,309.589,172.181,316.8z M82.624,203.584c6.933-1.067,14.144-2.048,21.632-2.987
				c5.76-0.853,11.157,3.413,11.904,9.28c0.725,5.845-3.413,11.157-9.28,11.904c-7.275,0.896-14.272,1.877-21.035,2.901
				c-0.533,0.085-1.088,0.128-1.621,0.128c-5.163,0-9.728-3.776-10.517-9.067C72.789,209.899,76.821,204.459,82.624,203.584z
				 M18.048,217.408c6.507-1.984,13.696-3.904,21.44-5.717c5.781-1.344,11.477,2.219,12.821,7.957s-2.219,11.477-7.936,12.821
				c-7.253,1.707-13.973,3.477-20.096,5.333c-1.024,0.32-2.091,0.469-3.115,0.469c-4.565,0-8.789-2.965-10.219-7.552
				C9.237,225.088,12.395,219.136,18.048,217.408z"/>
		</g>
	</g>
</g>
<g>
</g>
<g>
</g>
<g>
</g>
<g>
</g>
<g>
</g>
<g>
</g>
<g>
</g>
<g>
</g>
<g>
</g>
<g>
</g>
<g>
</g>
<g>
</g>
<g>
</g>
<g>
</g>
<g>
</g>
</svg>
