<?xml version="1.0" encoding="iso-8859-1"?>
<!-- Generator: Adobe Illustrator 19.0.0, SVG Export Plug-In . SVG Version: 6.00 Build 0)  -->
<svg version="1.1" id="Layer_1" xmlns="http://www.w3.org/2000/svg" xmlns:xlink="http://www.w3.org/1999/xlink" x="0px" y="0px"
	 viewBox="0 0 511.509 511.509" style="enable-background:new 0 0 511.509 511.509;" xml:space="preserve">
<g>
	<g>
		<path d="M498.675,493.845L265.16,5.568c-3.541-7.424-15.701-7.424-19.243,0L11.251,496.235c-1.579,3.307-1.344,7.189,0.597,10.283
			s5.355,4.992,9.024,4.992h469.76c5.888,0,10.667-4.779,10.667-10.667C501.299,498.176,500.317,495.723,498.675,493.845z
			 M244.872,31.509c0-5.888,4.779-10.667,10.667-10.667c5.888,0,10.667,4.779,10.667,10.667v10.667
			c0,5.888-4.779,10.667-10.667,10.667c-5.888,0-10.667-4.779-10.667-10.667V31.509z M244.872,87.893
			c0-5.888,4.779-10.667,10.667-10.667c5.888,0,10.667,4.779,10.667,10.667v22.848c0,5.888-4.779,10.667-10.667,10.667
			c-5.888,0-10.667-4.779-10.667-10.667V87.893z M244.872,156.459c0-5.888,4.779-10.667,10.667-10.667
			c5.888,0,10.667,4.779,10.667,10.667v22.848c0,5.888-4.779,10.667-10.667,10.667c-5.888,0-10.667-4.779-10.667-10.667V156.459z
			 M244.872,225.024c0-5.888,4.779-10.667,10.667-10.667c5.888,0,10.667,4.779,10.667,10.667v22.848
			c0,5.888-4.779,10.667-10.667,10.667c-5.888,0-10.667-4.779-10.667-10.667V225.024z M244.872,293.611
			c0-5.888,4.779-10.667,10.667-10.667c5.888,0,10.667,4.779,10.667,10.667v22.848c0,5.888-4.779,10.667-10.667,10.667
			c-5.888,0-10.667-4.779-10.667-10.667V293.611z M56.691,494.4l-9.344,5.141c-1.621,0.896-3.371,1.323-5.12,1.323
			c-3.755,0-7.424-2.005-9.344-5.525c-2.837-5.163-0.939-11.648,4.224-14.485l9.344-5.141c5.12-2.795,11.648-0.96,14.485,4.224
			C63.752,485.077,61.853,491.52,56.691,494.4z M109.768,465.195l-17.685,9.728c-1.621,0.896-3.392,1.323-5.141,1.323
			c-3.755,0-7.403-1.984-9.344-5.525c-2.837-5.163-0.96-11.648,4.203-14.485l17.685-9.728c5.099-2.795,11.648-0.981,14.507,4.203
			C116.808,455.851,114.931,462.357,109.768,465.195z M162.845,435.968l-17.685,9.728c-1.621,0.896-3.392,1.323-5.141,1.323
			c-3.755,0-7.403-1.984-9.344-5.525c-2.837-5.163-0.96-11.648,4.203-14.485l17.685-9.728c5.099-2.816,11.627-0.981,14.507,4.203
			C169.885,426.667,168.008,433.131,162.845,435.968z M215.944,406.784l-17.685,9.749c-1.621,0.896-3.392,1.323-5.141,1.323
			c-3.755,0-7.403-1.984-9.344-5.525c-2.837-5.163-0.96-11.648,4.203-14.485l17.685-9.749c5.12-2.816,11.648-0.981,14.485,4.203
			C222.984,397.461,221.107,403.947,215.944,406.784z M274.248,383.083c-1.941,3.541-5.611,5.525-9.344,5.525
			c-1.749,0-3.499-0.427-5.12-1.323l-4.245-2.304l-4.224,2.325c-5.099,2.773-11.648,0.96-14.485-4.224
			c-2.837-5.163-0.939-11.648,4.224-14.485l3.819-2.091v-4.352c0-5.888,4.779-10.667,10.667-10.667
			c5.888,0,10.667,4.779,10.667,10.667v4.352l3.819,2.091C275.187,371.456,277.085,377.941,274.248,383.083z M327.304,412.331
			c-1.963,3.541-5.611,5.525-9.344,5.525c-1.749,0-3.499-0.427-5.141-1.323l-17.685-9.728c-5.163-2.837-7.04-9.323-4.203-14.485
			c2.859-5.163,9.323-7.019,14.507-4.203l17.685,9.728C328.264,400.64,330.141,407.125,327.304,412.331z M380.403,441.515
			c-1.963,3.541-5.611,5.525-9.344,5.525c-1.749,0-3.499-0.427-5.141-1.323l-17.685-9.728c-5.163-2.837-7.04-9.323-4.203-14.485
			c2.88-5.184,9.344-7.019,14.507-4.203l17.685,9.728C381.341,429.845,383.219,436.352,380.403,441.515z M433.459,470.72
			c-1.941,3.541-5.589,5.525-9.344,5.525c-1.749,0-3.52-0.427-5.141-1.323l-17.685-9.749c-5.163-2.837-7.04-9.344-4.203-14.485
			c2.88-5.163,9.387-7.019,14.507-4.203l17.685,9.749C434.44,459.072,436.317,465.557,433.459,470.72z M478.216,495.296
			c-1.941,3.541-5.611,5.525-9.344,5.525c-1.749,0-3.499-0.427-5.12-1.323l-9.344-5.141c-5.163-2.837-7.061-9.323-4.224-14.485
			c2.837-5.184,9.365-7.019,14.485-4.224l9.344,5.141C479.155,483.669,481.053,490.133,478.216,495.296z"/>
	</g>
</g>
<g>
</g>
<g>
</g>
<g>
</g>
<g>
</g>
<g>
</g>
<g>
</g>
<g>
</g>
<g>
</g>
<g>
</g>
<g>
</g>
<g>
</g>
<g>
</g>
<g>
</g>
<g>
</g>
<g>
</g>
</svg>
