<?xml version="1.0" encoding="iso-8859-1"?>
<!-- Generator: Adobe Illustrator 19.0.0, SVG Export Plug-In . SVG Version: 6.00 Build 0)  -->
<svg version="1.1" id="Layer_1" xmlns="http://www.w3.org/2000/svg" xmlns:xlink="http://www.w3.org/1999/xlink" x="0px" y="0px"
	 viewBox="0 0 511.965 511.965" style="enable-background:new 0 0 511.965 511.965;" xml:space="preserve">
<g>
	<g>
		<g>
			<path d="M510.276,388.74l-3.093-4.928H4.847l-3.157,4.928c-1.685,2.624-2.133,5.867-1.237,8.853
				c0.917,2.987,3.093,5.419,5.952,6.677l245.333,106.667c1.344,0.597,2.795,0.896,4.245,0.896s2.901-0.299,4.245-0.896
				l245.333-106.667c2.88-1.237,5.035-3.669,5.952-6.677C512.409,394.607,511.961,391.364,510.276,388.74z"/>
			<path d="M264.985,4.74c-3.925-6.144-14.037-6.144-17.963,0L18.5,362.479h475.051L264.985,4.74z"/>
		</g>
	</g>
</g>
<g>
</g>
<g>
</g>
<g>
</g>
<g>
</g>
<g>
</g>
<g>
</g>
<g>
</g>
<g>
</g>
<g>
</g>
<g>
</g>
<g>
</g>
<g>
</g>
<g>
</g>
<g>
</g>
<g>
</g>
</svg>
