<?xml version="1.0" encoding="iso-8859-1"?>
<!-- Generator: Adobe Illustrator 19.0.0, SVG Export Plug-In . SVG Version: 6.00 Build 0)  -->
<svg version="1.1" id="Layer_1" xmlns="http://www.w3.org/2000/svg" xmlns:xlink="http://www.w3.org/1999/xlink" x="0px" y="0px"
	 viewBox="0 0 501.483 501.483" style="enable-background:new 0 0 501.483 501.483;" xml:space="preserve">
<g>
	<g>
		<g>
			<path d="M127.52,267.733c4.821-2.389,10.453-0.704,13.44,3.648h99.904c1.557-3.968,5.376-6.784,9.877-6.784
				s8.32,2.816,9.877,6.784h99.904c2.965-4.331,8.597-6.016,13.44-3.648l7.296,3.648h4.309L260.427,0.256
				c-0.064-0.107-0.192-0.149-0.256-0.256c0.725,1.451,1.216,3.008,1.216,4.736v10.667c0,5.888-4.779,10.667-10.667,10.667
				s-10.667-4.779-10.667-10.667V4.736c0-1.728,0.491-3.285,1.216-4.736c-0.064,0.107-0.192,0.149-0.256,0.256L115.915,271.381
				h4.309L127.52,267.733z M294.325,239.829c2.645-5.269,9.045-7.36,14.315-4.779l21.781,10.901
				c5.269,2.645,7.403,9.045,4.779,14.315c-1.877,3.733-5.653,5.888-9.536,5.888c-1.6,0-3.221-0.363-4.779-1.131l-21.781-10.901
				C293.835,251.499,291.701,245.099,294.325,239.829z M240.075,63.381c0-5.888,4.779-10.667,10.667-10.667
				s10.667,4.779,10.667,10.667v24c0,5.888-4.779,10.667-10.667,10.667s-10.667-4.779-10.667-10.667V63.381z M240.075,135.381
				c0-5.888,4.779-10.667,10.667-10.667s10.667,4.779,10.667,10.667v24c0,5.888-4.779,10.667-10.667,10.667
				s-10.667-4.779-10.667-10.667V135.381z M236.427,213.269l3.648-1.813v-4.075c0-5.888,4.779-10.667,10.667-10.667
				s10.667,4.779,10.667,10.667v4.075l3.648,1.813c5.269,2.645,7.403,9.045,4.779,14.315c-1.877,3.733-5.653,5.888-9.536,5.888
				c-0.043,0-0.064-0.021-0.107-0.021c-1.749,3.477-5.269,5.931-9.429,5.931c-4.203,0-7.744-2.475-9.493-6.016
				c-3.925,0.021-7.701-2.027-9.6-5.781C229.024,222.315,231.157,215.915,236.427,213.269z M171.104,245.952l21.781-10.901
				c5.291-2.603,11.669-0.512,14.315,4.779c2.624,5.269,0.491,11.669-4.779,14.315l-21.781,10.901
				c-1.536,0.768-3.157,1.131-4.779,1.131c-3.904,0-7.659-2.155-9.536-5.888C163.701,254.997,165.835,248.597,171.104,245.952z"/>
			<path d="M261.408,298.539c0,5.888-4.779,10.667-10.667,10.667s-10.667-4.779-10.667-10.667v-5.824H116.704l124.885,208.149
				c0.149,0.256,0.448,0.384,0.64,0.619c-1.259-1.749-2.155-3.776-2.155-6.101v-10.667c0-5.888,4.779-10.667,10.667-10.667
				s10.667,4.779,10.667,10.667v10.667c0,2.325-0.896,4.352-2.155,6.101c0.171-0.235,0.469-0.363,0.64-0.619l124.885-208.149
				H261.408V298.539z M261.408,438.165c0,5.888-4.779,10.667-10.667,10.667s-10.667-4.779-10.667-10.667v-23.275
				c0-5.888,4.779-10.667,10.667-10.667s10.667,4.779,10.667,10.667V438.165z M261.408,368.341c0,5.888-4.779,10.667-10.667,10.667
				s-10.667-4.779-10.667-10.667v-23.275c0-5.888,4.779-10.667,10.667-10.667s10.667,4.779,10.667,10.667V368.341z"/>
		</g>
	</g>
</g>
<g>
</g>
<g>
</g>
<g>
</g>
<g>
</g>
<g>
</g>
<g>
</g>
<g>
</g>
<g>
</g>
<g>
</g>
<g>
</g>
<g>
</g>
<g>
</g>
<g>
</g>
<g>
</g>
<g>
</g>
</svg>
