<?xml version="1.0" encoding="iso-8859-1"?>
<!-- Generator: Adobe Illustrator 19.0.0, SVG Export Plug-In . SVG Version: 6.00 Build 0)  -->
<svg version="1.1" id="Layer_1" xmlns="http://www.w3.org/2000/svg" xmlns:xlink="http://www.w3.org/1999/xlink" x="0px" y="0px"
	 viewBox="0 0 511.962 511.962" style="enable-background:new 0 0 511.962 511.962;" xml:space="preserve">
<g>
	<g>
		<path d="M445.887,85.112c-0.235-0.341-0.363-0.768-0.661-1.067c-0.917-1.024-1.963-1.92-2.923-2.923
			c-3.712-3.947-7.531-7.765-11.477-11.477c-1.003-0.939-1.899-1.984-2.923-2.923c-0.32-0.277-0.725-0.405-1.067-0.661
			C373.887,18.36,301.226-7.88,222.591,2.125C169.898,8.824,122.026,32.248,84.202,66.594c-0.064,0.043-0.149,0.064-0.192,0.128
			c-0.277,0.277-0.533,0.555-0.811,0.832c-5.461,5.013-10.667,10.24-15.68,15.68c-0.256,0.256-0.555,0.512-0.811,0.789
			c-0.064,0.085-0.064,0.149-0.128,0.192C32.212,122.04,8.81,169.912,2.111,222.605C-7.894,301.261,18.367,373.901,66.047,426.85
			c0.235,0.341,0.363,0.768,0.661,1.067c0.917,1.024,1.984,1.92,2.923,2.923c3.712,3.947,7.531,7.765,11.477,11.477
			c1.003,0.939,1.899,2.005,2.923,2.923c0.32,0.277,0.725,0.405,1.067,0.661c52.949,47.701,125.611,73.941,204.245,63.936
			c52.693-6.699,100.565-30.123,138.389-64.469c0.064-0.043,0.149-0.064,0.213-0.128c0.277-0.256,0.533-0.555,0.832-0.832
			c5.44-5.013,10.688-10.24,15.68-15.68c0.256-0.277,0.555-0.533,0.811-0.811c0.064-0.064,0.064-0.149,0.128-0.192
			c34.368-37.824,57.771-85.696,64.469-138.389C519.828,210.722,493.588,138.061,445.887,85.112z M85.29,403.405V106.658h153.152
			L85.29,403.405z M426.623,403.405L273.471,106.658h153.152V403.405z"/>
	</g>
</g>
<g>
</g>
<g>
</g>
<g>
</g>
<g>
</g>
<g>
</g>
<g>
</g>
<g>
</g>
<g>
</g>
<g>
</g>
<g>
</g>
<g>
</g>
<g>
</g>
<g>
</g>
<g>
</g>
<g>
</g>
</svg>
