<?xml version="1.0" encoding="iso-8859-1"?>
<!-- Generator: Adobe Illustrator 19.0.0, SVG Export Plug-In . SVG Version: 6.00 Build 0)  -->
<svg version="1.1" id="Layer_1" xmlns="http://www.w3.org/2000/svg" xmlns:xlink="http://www.w3.org/1999/xlink" x="0px" y="0px"
	 viewBox="0 0 490.667 490.667" style="enable-background:new 0 0 490.667 490.667;" xml:space="preserve">
<g>
	<g>
		<path d="M480,0H10.667C4.779,0,0,4.779,0,10.667V480c0,5.888,4.779,10.667,10.667,10.667H480c5.888,0,10.667-4.779,10.667-10.667
			V10.667C490.667,4.779,485.888,0,480,0z M21.333,245.333c0-117.376,90.795-213.76,205.803-223.083L50.624,355.648
			C32.064,323.051,21.333,285.44,21.333,245.333z M245.333,469.333c-71.147,0-134.507-33.451-175.573-85.333h351.147
			C379.84,435.883,316.48,469.333,245.333,469.333z M440.043,355.648L263.531,22.251c115.008,9.323,205.803,105.707,205.803,223.083
			C469.333,285.461,458.603,323.051,440.043,355.648z"/>
	</g>
</g>
<g>
</g>
<g>
</g>
<g>
</g>
<g>
</g>
<g>
</g>
<g>
</g>
<g>
</g>
<g>
</g>
<g>
</g>
<g>
</g>
<g>
</g>
<g>
</g>
<g>
</g>
<g>
</g>
<g>
</g>
</svg>
